{"scene":0,"scenes":[{"nodes":[0]}],"nodes":[{"mesh":0}],"meshes":[{"primitives":[{"attributes":{"POSITION":1,"TEXCOORD_0":2},"indices":0,"material":0}]}],"textures":[{"source":0,"sampler":0}],"images":[{"uri":"data:image/png;base64,"}],"samplers":[{"magFilter":9728,"minFilter":9987,"wrapS":33648,"wrapT":33648}],"materials":[{"pbrMetallicRoughness":{"baseColorTexture":{"index":0},"metallicFactor":0,"roughnessFactor":1}}],"buffers":[{"uri":"data:application/octet-stream;base64,","byteLength":1068},{"uri":"data:application/octet-stream;base64,","byteLength":2244},{"uri":"data:application/gltf-buffer;base64,","byteLength":1496}],"bufferViews":[{"buffer":0,"byteOffset":0,"byteLength":1068,"target":34963},{"buffer":1,"byteOffset":0,"byteLength":2244},{"buffer":2,"byteOffset":0,"target":34962,"byteLength":1496}],"accessors":[{"bufferView":0,"byteOffset":0,"componentType":5123,"count":534,"type":"SCALAR","max":[186],"min":[0]},{"bufferView":1,"byteOffset":0,"componentType":5126,"count":187,"type":"VEC3","max":[12,202,17],"min":[-12,164,-10]},{"bufferView":2,"byteOffset":0,"componentType":5126,"count":187,"type":"VEC2","max":[0.9285714285714285,0.66],"min":[0.07142857142857142,0.33]}],"asset":{"version":"2.0"}}