{"scene": 0, "scenes": [{"nodes": [0]}], "nodes": [{"mesh": 0}], "meshes": [{"primitives": [{"attributes": {"POSITION": 1, "TEXCOORD_0": 66}, "indices": 0, "targets": [{"POSITION": 4}, {"POSITION": 6}, {"POSITION": 8}, {"POSITION": 10}, {"POSITION": 12}, {"POSITION": 14}, {"POSITION": 16}, {"POSITION": 18}, {"POSITION": 20}, {"POSITION": 22}, {"POSITION": 24}, {"POSITION": 26}, {"POSITION": 28}, {"POSITION": 30}, {"POSITION": 32}, {"POSITION": 34}, {"POSITION": 36}, {"POSITION": 38}, {"POSITION": 40}, {"POSITION": 42}, {"POSITION": 44}, {"POSITION": 46}, {"POSITION": 48}, {"POSITION": 50}, {"POSITION": 52}, {"POSITION": 54}, {"POSITION": 56}, {"POSITION": 58}], "material": 0}, {"attributes": {"POSITION": 3, "TEXCOORD_0": 67}, "indices": 2, "targets": [{"POSITION": 5}, {"POSITION": 7}, {"POSITION": 9}, {"POSITION": 11}, {"POSITION": 13}, {"POSITION": 15}, {"POSITION": 17}, {"POSITION": 19}, {"POSITION": 21}, {"POSITION": 23}, {"POSITION": 25}, {"POSITION": 27}, {"POSITION": 29}, {"POSITION": 31}, {"POSITION": 33}, {"POSITION": 35}, {"POSITION": 37}, {"POSITION": 39}, {"POSITION": 41}, {"POSITION": 43}, {"POSITION": 45}, {"POSITION": 47}, {"POSITION": 49}, {"POSITION": 51}, {"POSITION": 53}, {"POSITION": 55}, {"POSITION": 57}, {"POSITION": 59}], "material": 1}], "weights": [1, 0, 0, 0, 0, 0, 0, 0, 0, 0, 0, 0, 0, 0, 0, 0, 0, 0, 0, 0, 0, 0, 0, 0, 0, 0, 0, 0]}], "textures": [{"source": 0, "sampler": 0}], "images": [{"uri": "player_legs_palette.png"}], "samplers": [{"magFilter": 9728, "minFilter": 9987, "wrapS": 33648, "wrapT": 33648}, {"magFilter": 9728, "minFilter": 9987, "wrapS": 33648, "wrapT": 33648}], "materials": [{"pbrMetallicRoughness": {"baseColorTexture": {"index": 0}, "metallicFactor": 0, "roughnessFactor": 1}}, {"alphaMode": "BLEND", "pbrMetallicRoughness": {"baseColorTexture": {"index": 0}, "metallicFactor": 0, "roughnessFactor": 1}}], "animations": [{"samplers": [{"input": 60, "interpolation": "STEP", "output": 61}], "channels": [{"sampler": 0, "target": {"node": 0, "path": "weights"}}], "name": "idle"}, {"samplers": [{"input": 62, "interpolation": "STEP", "output": 63}], "channels": [{"sampler": 0, "target": {"node": 0, "path": "weights"}}], "name": "eat"}, {"samplers": [{"input": 64, "interpolation": "STEP", "output": 65}], "channels": [{"sampler": 0, "target": {"node": 0, "path": "weights"}}], "name": "run"}], "buffers": [{"uri": "player_legs_buf0.bin", "byteLength": 1290}, {"uri": "player_legs_buf1.bin", "byteLength": 2208}, {"uri": "player_legs_buf2.bin", "byteLength": 972}, {"uri": "player_legs_buf3.bin", "byteLength": 1992}, {"uri": "player_legs_buf4.bin", "byteLength": 2208}, {"uri": "player_legs_buf5.bin", "byteLength": 1992}, {"uri": "player_legs_buf6.bin", "byteLength": 2208}, {"uri": "player_legs_buf7.bin", "byteLength": 1992}, {"uri": "player_legs_buf8.bin", "byteLength": 2208}, {"uri": "player_legs_buf9.bin", "byteLength": 1992}, {"uri": "player_legs_buf10.bin", "byteLength": 2208}, {"uri": "player_legs_buf11.bin", "byteLength": 1992}, {"uri": "player_legs_buf12.bin", "byteLength": 2208}, {"uri": "player_legs_buf13.bin", "byteLength": 1992}, {"uri": "player_legs_buf14.bin", "byteLength": 2208}, {"uri": "player_legs_buf15.bin", "byteLength": 1992}, {"uri": "player_legs_buf16.bin", "byteLength": 2208}, {"uri": "player_legs_buf17.bin", "byteLength": 1992}, {"uri": "player_legs_buf18.bin", "byteLength": 2208}, {"uri": "player_legs_buf19.bin", "byteLength": 1992}, {"uri": "player_legs_buf20.bin", "byteLength": 2208}, {"uri": "player_legs_buf21.bin", "byteLength": 1992}, {"uri": "player_legs_buf22.bin", "byteLength": 2208}, {"uri": "player_legs_buf23.bin", "byteLength": 1992}, {"uri": "player_legs_buf24.bin", "byteLength": 2208}, {"uri": "player_legs_buf25.bin", "byteLength": 1992}, {"uri": "player_legs_buf26.bin", "byteLength": 2208}, {"uri": "player_legs_buf27.bin", "byteLength": 1992}, {"uri": "player_legs_buf28.bin", "byteLength": 2208}, {"uri": "player_legs_buf29.bin", "byteLength": 1992}, {"uri": "player_legs_buf30.bin", "byteLength": 2208}, {"uri": "player_legs_buf31.bin", "byteLength": 1992}, {"uri": "player_legs_buf32.bin", "byteLength": 2208}, {"uri": "player_legs_buf33.bin", "byteLength": 1992}, {"uri": "player_legs_buf34.bin", "byteLength": 2208}, {"uri": "player_legs_buf35.bin", "byteLength": 1992}, {"uri": "player_legs_buf36.bin", "byteLength": 2208}, {"uri": "player_legs_buf37.bin", "byteLength": 1992}, {"uri": "player_legs_buf38.bin", "byteLength": 2208}, {"uri": "player_legs_buf39.bin", "byteLength": 1992}, {"uri": "player_legs_buf40.bin", "byteLength": 2208}, {"uri": "player_legs_buf41.bin", "byteLength": 1992}, {"uri": "player_legs_buf42.bin", "byteLength": 2208}, {"uri": "player_legs_buf43.bin", "byteLength": 1992}, {"uri": "player_legs_buf44.bin", "byteLength": 2208}, {"uri": "player_legs_buf45.bin", "byteLength": 1992}, {"uri": "player_legs_buf46.bin", "byteLength": 2208}, {"uri": "player_legs_buf47.bin", "byteLength": 1992}, {"uri": "player_legs_buf48.bin", "byteLength": 2208}, {"uri": "player_legs_buf49.bin", "byteLength": 1992}, {"uri": "player_legs_buf50.bin", "byteLength": 2208}, {"uri": "player_legs_buf51.bin", "byteLength": 1992}, {"uri": "player_legs_buf52.bin", "byteLength": 2208}, {"uri": "player_legs_buf53.bin", "byteLength": 1992}, {"uri": "player_legs_buf54.bin", "byteLength": 2208}, {"uri": "player_legs_buf55.bin", "byteLength": 1992}, {"uri": "player_legs_buf56.bin", "byteLength": 2208}, {"uri": "player_legs_buf57.bin", "byteLength": 1992}, {"uri": "player_legs_buf58.bin", "byteLength": 2208}, {"uri": "player_legs_buf59.bin", "byteLength": 1992}, {"uri": "player_legs_buf60.bin", "byteLength": 1392}, {"uri": "player_legs_buf61.bin", "byteLength": 1160}, {"uri": "player_legs_buf62.bin", "byteLength": 928}, {"uri": "player_legs_buf63.bin", "byteLength": 1472}, {"uri": "player_legs_buf64.bin", "byteLength": 1328}], "bufferViews": [{"buffer": 0, "byteOffset": 0, "byteLength": 1290, "target": 34963}, {"buffer": 1, "byteOffset": 0, "byteLength": 2208}, {"buffer": 2, "byteOffset": 0, "byteLength": 972, "target": 34963}, {"buffer": 3, "byteOffset": 0, "byteLength": 1992}, {"buffer": 4, "byteOffset": 0, "byteLength": 2208, "target": 34962}, {"buffer": 5, "byteOffset": 0, "byteLength": 1992, "target": 34962}, {"buffer": 6, "byteOffset": 0, "byteLength": 2208, "target": 34962}, {"buffer": 7, "byteOffset": 0, "byteLength": 1992, "target": 34962}, {"buffer": 8, "byteOffset": 0, "byteLength": 2208, "target": 34962}, {"buffer": 9, "byteOffset": 0, "byteLength": 1992, "target": 34962}, {"buffer": 10, "byteOffset": 0, "byteLength": 2208, "target": 34962}, {"buffer": 11, "byteOffset": 0, "byteLength": 1992, "target": 34962}, {"buffer": 12, "byteOffset": 0, "byteLength": 2208, "target": 34962}, {"buffer": 13, "byteOffset": 0, "byteLength": 1992, "target": 34962}, {"buffer": 14, "byteOffset": 0, "byteLength": 2208, "target": 34962}, {"buffer": 15, "byteOffset": 0, "byteLength": 1992, "target": 34962}, {"buffer": 16, "byteOffset": 0, "byteLength": 2208, "target": 34962}, {"buffer": 17, "byteOffset": 0, "byteLength": 1992, "target": 34962}, {"buffer": 18, "byteOffset": 0, "byteLength": 2208, "target": 34962}, {"buffer": 19, "byteOffset": 0, "byteLength": 1992, "target": 34962}, {"buffer": 20, "byteOffset": 0, "byteLength": 2208, "target": 34962}, {"buffer": 21, "byteOffset": 0, "byteLength": 1992, "target": 34962}, {"buffer": 22, "byteOffset": 0, "byteLength": 2208, "target": 34962}, {"buffer": 23, "byteOffset": 0, "byteLength": 1992, "target": 34962}, {"buffer": 24, "byteOffset": 0, "byteLength": 2208, "target": 34962}, {"buffer": 25, "byteOffset": 0, "byteLength": 1992, "target": 34962}, {"buffer": 26, "byteOffset": 0, "byteLength": 2208, "target": 34962}, {"buffer": 27, "byteOffset": 0, "byteLength": 1992, "target": 34962}, {"buffer": 28, "byteOffset": 0, "byteLength": 2208, "target": 34962}, {"buffer": 29, "byteOffset": 0, "byteLength": 1992, "target": 34962}, {"buffer": 30, "byteOffset": 0, "byteLength": 2208, "target": 34962}, {"buffer": 31, "byteOffset": 0, "byteLength": 1992, "target": 34962}, {"buffer": 32, "byteOffset": 0, "byteLength": 2208, "target": 34962}, {"buffer": 33, "byteOffset": 0, "byteLength": 1992, "target": 34962}, {"buffer": 34, "byteOffset": 0, "byteLength": 2208, "target": 34962}, {"buffer": 35, "byteOffset": 0, "byteLength": 1992, "target": 34962}, {"buffer": 36, "byteOffset": 0, "byteLength": 2208, "target": 34962}, {"buffer": 37, "byteOffset": 0, "byteLength": 1992, "target": 34962}, {"buffer": 38, "byteOffset": 0, "byteLength": 2208, "target": 34962}, {"buffer": 39, "byteOffset": 0, "byteLength": 1992, "target": 34962}, {"buffer": 40, "byteOffset": 0, "byteLength": 2208, "target": 34962}, {"buffer": 41, "byteOffset": 0, "byteLength": 1992, "target": 34962}, {"buffer": 42, "byteOffset": 0, "byteLength": 2208, "target": 34962}, {"buffer": 43, "byteOffset": 0, "byteLength": 1992, "target": 34962}, {"buffer": 44, "byteOffset": 0, "byteLength": 2208, "target": 34962}, {"buffer": 45, "byteOffset": 0, "byteLength": 1992, "target": 34962}, {"buffer": 46, "byteOffset": 0, "byteLength": 2208, "target": 34962}, {"buffer": 47, "byteOffset": 0, "byteLength": 1992, "target": 34962}, {"buffer": 48, "byteOffset": 0, "byteLength": 2208, "target": 34962}, {"buffer": 49, "byteOffset": 0, "byteLength": 1992, "target": 34962}, {"buffer": 50, "byteOffset": 0, "byteLength": 2208, "target": 34962}, {"buffer": 51, "byteOffset": 0, "byteLength": 1992, "target": 34962}, {"buffer": 52, "byteOffset": 0, "byteLength": 2208, "target": 34962}, {"buffer": 53, "byteOffset": 0, "byteLength": 1992, "target": 34962}, {"buffer": 54, "byteOffset": 0, "byteLength": 2208, "target": 34962}, {"buffer": 55, "byteOffset": 0, "byteLength": 1992, "target": 34962}, {"buffer": 56, "byteOffset": 0, "byteLength": 2208, "target": 34962}, {"buffer": 57, "byteOffset": 0, "byteLength": 1992, "target": 34962}, {"buffer": 58, "byteOffset": 0, "byteLength": 2208, "target": 34962}, {"buffer": 59, "byteOffset": 0, "byteLength": 1992, "target": 34962}, {"buffer": 60, "byteOffset": 0, "byteLength": 48}, {"buffer": 60, "byteOffset": 48, "byteLength": 1344}, {"buffer": 61, "byteOffset": 0, "byteLength": 40}, {"buffer": 61, "byteOffset": 40, "byteLength": 1120}, {"buffer": 62, "byteOffset": 0, "byteLength": 32}, {"buffer": 62, "byteOffset": 32, "byteLength": 896}, {"buffer": 63, "byteOffset": 0, "target": 34962, "byteLength": 1472}, {"buffer": 64, "byteOffset": 0, "target": 34962, "byteLength": 1328}], "accessors": [{"bufferView": 0, "byteOffset": 0, "componentType": 5123, "count": 645, "type": "SCALAR", "max": [183], "min": [0]}, {"bufferView": 1, "byteOffset": 0, "componentType": 5126, "count": 184, "type": "VEC3", "max": [17, 110, 18], "min": [-17, -6, -12]}, {"bufferView": 2, "byteOffset": 0, "componentType": 5123, "count": 486, "type": "SCALAR", "max": [165], "min": [0]}, {"bufferView": 3, "byteOffset": 0, "componentType": 5126, "count": 166, "type": "VEC3", "max": [23, 115, 14], "min": [-23, 18, -15]}, {"bufferView": 4, "byteOffset": 0, "componentType": 5126, "count": 184, "type": "VEC3", "max": [4.444444444444445, 5.111111111111114, 14], "min": [-18.444444444444443, -3.8888888888888857, -29]}, {"bufferView": 5, "byteOffset": 0, "componentType": 5126, "count": 166, "type": "VEC3", "max": [3.5555555555555554, 5.111111111111114, 10], "min": [-11.444444444444445, -3.8888888888888857, -22]}, {"bufferView": 6, "byteOffset": 0, "componentType": 5126, "count": 184, "type": "VEC3", "max": [4.444444444444445, 5.111111111111114, 14], "min": [-18.444444444444443, -3.8888888888888857, -29]}, {"bufferView": 7, "byteOffset": 0, "componentType": 5126, "count": 166, "type": "VEC3", "max": [3.5555555555555554, 5.111111111111114, 10], "min": [-11.444444444444445, -3.8888888888888857, -22]}, {"bufferView": 8, "byteOffset": 0, "componentType": 5126, "count": 184, "type": "VEC3", "max": [4.444444444444445, 5.111111111111114, 14], "min": [-18.444444444444443, -3.8888888888888857, -29]}, {"bufferView": 9, "byteOffset": 0, "componentType": 5126, "count": 166, "type": "VEC3", "max": [3.5555555555555554, 5.111111111111114, 10], "min": [-11.444444444444445, -3.8888888888888857, -22]}, {"bufferView": 10, "byteOffset": 0, "componentType": 5126, "count": 184, "type": "VEC3", "max": [4.444444444444445, 5.111111111111114, 14], "min": [-18.444444444444443, -3.8888888888888857, -29]}, {"bufferView": 11, "byteOffset": 0, "componentType": 5126, "count": 166, "type": "VEC3", "max": [3.5555555555555554, 5.111111111111114, 10], "min": [-11.444444444444445, -3.8888888888888857, -22]}, {"bufferView": 12, "byteOffset": 0, "componentType": 5126, "count": 184, "type": "VEC3", "max": [4.444444444444445, 5.111111111111114, 14], "min": [-18.444444444444443, -3.8888888888888857, -29]}, {"bufferView": 13, "byteOffset": 0, "componentType": 5126, "count": 166, "type": "VEC3", "max": [3.5555555555555554, 5.111111111111114, 10], "min": [-11.444444444444445, -3.8888888888888857, -22]}, {"bufferView": 14, "byteOffset": 0, "componentType": 5126, "count": 184, "type": "VEC3", "max": [4.444444444444445, 5.111111111111114, 14], "min": [-18.444444444444443, -3.8888888888888857, -29]}, {"bufferView": 15, "byteOffset": 0, "componentType": 5126, "count": 166, "type": "VEC3", "max": [3.5555555555555554, 5.111111111111114, 10], "min": [-11.444444444444445, -3.8888888888888857, -22]}, {"bufferView": 16, "byteOffset": 0, "componentType": 5126, "count": 184, "type": "VEC3", "max": [4.444444444444445, 5.111111111111114, 14], "min": [-18.444444444444443, -3.8888888888888857, -29]}, {"bufferView": 17, "byteOffset": 0, "componentType": 5126, "count": 166, "type": "VEC3", "max": [3.5555555555555554, 5.111111111111114, 10], "min": [-11.444444444444445, -3.8888888888888857, -22]}, {"bufferView": 18, "byteOffset": 0, "componentType": 5126, "count": 184, "type": "VEC3", "max": [4.444444444444445, 5.111111111111114, 14], "min": [-18.444444444444443, -3.8888888888888857, -29]}, {"bufferView": 19, "byteOffset": 0, "componentType": 5126, "count": 166, "type": "VEC3", "max": [3.5555555555555554, 5.111111111111114, 10], "min": [-11.444444444444445, -3.8888888888888857, -22]}, {"bufferView": 20, "byteOffset": 0, "componentType": 5126, "count": 184, "type": "VEC3", "max": [4.444444444444445, 5.111111111111114, 14], "min": [-18.444444444444443, -3.8888888888888857, -29]}, {"bufferView": 21, "byteOffset": 0, "componentType": 5126, "count": 166, "type": "VEC3", "max": [3.5555555555555554, 5.111111111111114, 10], "min": [-11.444444444444445, -3.8888888888888857, -22]}, {"bufferView": 22, "byteOffset": 0, "componentType": 5126, "count": 184, "type": "VEC3", "max": [4.444444444444445, 5.111111111111114, 14], "min": [-18.444444444444443, -3.8888888888888857, -29]}, {"bufferView": 23, "byteOffset": 0, "componentType": 5126, "count": 166, "type": "VEC3", "max": [3.5555555555555554, 5.111111111111114, 10], "min": [-11.444444444444445, -3.8888888888888857, -22]}, {"bufferView": 24, "byteOffset": 0, "componentType": 5126, "count": 184, "type": "VEC3", "max": [4.444444444444445, 5.111111111111114, 14], "min": [-18.444444444444443, -3.8888888888888857, -29]}, {"bufferView": 25, "byteOffset": 0, "componentType": 5126, "count": 166, "type": "VEC3", "max": [3.5555555555555554, 5.111111111111114, 10], "min": [-11.444444444444445, -3.8888888888888857, -22]}, {"bufferView": 26, "byteOffset": 0, "componentType": 5126, "count": 184, "type": "VEC3", "max": [4.444444444444445, 5.111111111111114, 14], "min": [-18.444444444444443, -3.8888888888888857, -29]}, {"bufferView": 27, "byteOffset": 0, "componentType": 5126, "count": 166, "type": "VEC3", "max": [3.5555555555555554, 5.111111111111114, 10], "min": [-11.444444444444445, -3.8888888888888857, -22]}, {"bufferView": 28, "byteOffset": 0, "componentType": 5126, "count": 184, "type": "VEC3", "max": [4.444444444444445, 5.111111111111114, 14], "min": [-18.444444444444443, -3.8888888888888857, -29]}, {"bufferView": 29, "byteOffset": 0, "componentType": 5126, "count": 166, "type": "VEC3", "max": [3.5555555555555554, 5.111111111111114, 10], "min": [-11.444444444444445, -3.8888888888888857, -22]}, {"bufferView": 30, "byteOffset": 0, "componentType": 5126, "count": 184, "type": "VEC3", "max": [4.444444444444445, 5.111111111111114, 14], "min": [-18.444444444444443, -3.8888888888888857, -29]}, {"bufferView": 31, "byteOffset": 0, "componentType": 5126, "count": 166, "type": "VEC3", "max": [3.5555555555555554, 5.111111111111114, 10], "min": [-11.444444444444445, -3.8888888888888857, -22]}, {"bufferView": 32, "byteOffset": 0, "componentType": 5126, "count": 184, "type": "VEC3", "max": [4.444444444444445, 5.111111111111114, 14], "min": [-18.444444444444443, -3.8888888888888857, -29]}, {"bufferView": 33, "byteOffset": 0, "componentType": 5126, "count": 166, "type": "VEC3", "max": [3.5555555555555554, 5.111111111111114, 10], "min": [-11.444444444444445, -3.8888888888888857, -22]}, {"bufferView": 34, "byteOffset": 0, "componentType": 5126, "count": 184, "type": "VEC3", "max": [4.444444444444445, 5.111111111111114, 14], "min": [-18.444444444444443, -3.8888888888888857, -29]}, {"bufferView": 35, "byteOffset": 0, "componentType": 5126, "count": 166, "type": "VEC3", "max": [3.5555555555555554, 5.111111111111114, 10], "min": [-11.444444444444445, -3.8888888888888857, -22]}, {"bufferView": 36, "byteOffset": 0, "componentType": 5126, "count": 184, "type": "VEC3", "max": [4.444444444444445, 5.111111111111114, 14], "min": [-18.444444444444443, -3.8888888888888857, -29]}, {"bufferView": 37, "byteOffset": 0, "componentType": 5126, "count": 166, "type": "VEC3", "max": [3.5555555555555554, 5.111111111111114, 10], "min": [-11.444444444444445, -3.8888888888888857, -22]}, {"bufferView": 38, "byteOffset": 0, "componentType": 5126, "count": 184, "type": "VEC3", "max": [4.444444444444445, 5.111111111111114, 14], "min": [-18.444444444444443, -3.8888888888888857, -29]}, {"bufferView": 39, "byteOffset": 0, "componentType": 5126, "count": 166, "type": "VEC3", "max": [3.5555555555555554, 5.111111111111114, 10], "min": [-11.444444444444445, -3.8888888888888857, -22]}, {"bufferView": 40, "byteOffset": 0, "componentType": 5126, "count": 184, "type": "VEC3", "max": [4.444444444444445, 5.111111111111114, 14], "min": [-18.444444444444443, -3.8888888888888857, -29]}, {"bufferView": 41, "byteOffset": 0, "componentType": 5126, "count": 166, "type": "VEC3", "max": [3.5555555555555554, 5.111111111111114, 10], "min": [-11.444444444444445, -3.8888888888888857, -22]}, {"bufferView": 42, "byteOffset": 0, "componentType": 5126, "count": 184, "type": "VEC3", "max": [4.444444444444445, 5.111111111111114, 14], "min": [-18.444444444444443, -3.8888888888888857, -29]}, {"bufferView": 43, "byteOffset": 0, "componentType": 5126, "count": 166, "type": "VEC3", "max": [3.5555555555555554, 5.111111111111114, 10], "min": [-11.444444444444445, -3.8888888888888857, -22]}, {"bufferView": 44, "byteOffset": 0, "componentType": 5126, "count": 184, "type": "VEC3", "max": [0.5555555555555554, 49.05555555555556, 56.52777777777778], "min": [-8.944444444444443, -1.4444444444444429, -79.59722222222223]}, {"bufferView": 45, "byteOffset": 0, "componentType": 5126, "count": 166, "type": "VEC3", "max": [3, 41.05555555555556, 47.52777777777778], "min": [-4.444444444444445, -1.4444444444444429, -47.59722222222222]}, {"bufferView": 46, "byteOffset": 0, "componentType": 5126, "count": 184, "type": "VEC3", "max": [2, 49.80555555555555, 16.61111111111111], "min": [-4.944444444444445, -5.69444444444445, -68.38888888888889]}, {"bufferView": 47, "byteOffset": 0, "componentType": 5126, "count": 166, "type": "VEC3", "max": [1, 34.80555555555555, 19.133333333333333], "min": [-1.4444444444444446, -4.444444444444443, -32.38888888888889]}, {"bufferView": 48, "byteOffset": 0, "componentType": 5126, "count": 184, "type": "VEC3", "max": [0.5555555555555571, 56.80555555555555, 26.86111111111111], "min": [-2.4444444444444446, -4.444444444444443, -48.138888888888886]}, {"bufferView": 49, "byteOffset": 0, "componentType": 5126, "count": 166, "type": "VEC3", "max": [0.5555555555555571, 38.80555555555555, 25.111111111111107], "min": [-1.5555555555555554, -4.444444444444443, -13.13888888888889]}, {"bufferView": 50, "byteOffset": 0, "componentType": 5126, "count": 184, "type": "VEC3", "max": [2.5555555555555554, 27.555555555555557, 42.22222222222222], "min": [-3.5555555555555554, -8.444444444444443, -55.02777777777778]}, {"bufferView": 51, "byteOffset": 0, "componentType": 5126, "count": 166, "type": "VEC3", "max": [1.5555555555555554, 23.555555555555557, 42.22222222222222], "min": [-3.5555555555555554, -8.444444444444443, -34.02777777777778]}, {"bufferView": 52, "byteOffset": 0, "componentType": 5126, "count": 184, "type": "VEC3", "max": [3.5555555555555554, 49.05555555555556, 56.02777777777778], "min": [-4.555555555555555, -1.4444444444444429, -79.59722222222223]}, {"bufferView": 53, "byteOffset": 0, "componentType": 5126, "count": 166, "type": "VEC3", "max": [2.5555555555555554, 41.05555555555556, 49.02777777777778], "min": [-4, -1.4444444444444429, -47.59722222222222]}, {"bufferView": 54, "byteOffset": 0, "componentType": 5126, "count": 184, "type": "VEC3", "max": [2, 49.80555555555555, 15.666666666666664], "min": [0, -5.44444444444445, -69.83333333333334]}, {"bufferView": 55, "byteOffset": 0, "componentType": 5126, "count": 166, "type": "VEC3", "max": [0, 34.80555555555555, 18.133333333333333], "min": [-2, -4.444444444444443, -32.833333333333336]}, {"bufferView": 56, "byteOffset": 0, "componentType": 5126, "count": 184, "type": "VEC3", "max": [0.5555555555555571, 55.80555555555555, 26.222222222222225], "min": [-1.5555555555555554, -4.444444444444443, -48.77777777777777]}, {"bufferView": 57, "byteOffset": 0, "componentType": 5126, "count": 166, "type": "VEC3", "max": [0.44444444444444464, 38.80555555555555, 25.22222222222222], "min": [-1.5555555555555571, -4.444444444444443, -13.777777777777775]}, {"bufferView": 58, "byteOffset": 0, "componentType": 5126, "count": 184, "type": "VEC3", "max": [2.4444444444444446, 27.555555555555557, 42.22222222222222], "min": [-3.4444444444444446, -8.444444444444443, -54.77777777777778]}, {"bufferView": 59, "byteOffset": 0, "componentType": 5126, "count": 166, "type": "VEC3", "max": [1.4444444444444446, 24.555555555555557, 42.22222222222222], "min": [-3.4444444444444446, -8.444444444444443, -33.52777777777778]}, {"bufferView": 60, "byteOffset": 0, "componentType": 5126, "count": 12, "type": "SCALAR", "max": [5.04], "min": [0.42]}, {"bufferView": 61, "byteOffset": 0, "componentType": 5126, "count": 336, "type": "SCALAR", "max": [1], "min": [0]}, {"bufferView": 62, "byteOffset": 0, "componentType": 5126, "count": 10, "type": "SCALAR", "max": [1.46], "min": [0.08]}, {"bufferView": 63, "byteOffset": 0, "componentType": 5126, "count": 280, "type": "SCALAR", "max": [1], "min": [0]}, {"bufferView": 64, "byteOffset": 0, "componentType": 5126, "count": 8, "type": "SCALAR", "max": [0.68], "min": [0.1]}, {"bufferView": 65, "byteOffset": 0, "componentType": 5126, "count": 224, "type": "SCALAR", "max": [1], "min": [0]}, {"bufferView": 66, "byteOffset": 0, "componentType": 5126, "count": 184, "type": "VEC2", "max": [0.9285714285714285, 0.66], "min": [0.07142857142857142, 0.33]}, {"bufferView": 67, "byteOffset": 0, "componentType": 5126, "count": 166, "type": "VEC2", "max": [0.3571428571428571, 0.66], "min": [0.21428571428571427, 0.33]}], "asset": {"version": "2.0"}}