{"scene":0,"scenes":[{"nodes":[0]}],"nodes":[{"mesh":0}],"meshes":[{"primitives":[{"attributes":{"POSITION":1,"TEXCOORD_0":4},"indices":0,"material":0},{"attributes":{"POSITION":3,"TEXCOORD_0":5},"indices":2,"material":1}]}],"textures":[{"source":0,"sampler":0}],"images":[{"uri":"data:image/png;base64,"}],"samplers":[{"magFilter":9728,"minFilter":9987,"wrapS":33648,"wrapT":33648},{"magFilter":9728,"minFilter":9987,"wrapS":33648,"wrapT":33648}],"materials":[{"pbrMetallicRoughness":{"baseColorTexture":{"index":0},"metallicFactor":0,"roughnessFactor":1}},{"alphaMode":"BLEND","pbrMetallicRoughness":{"baseColorTexture":{"index":0},"metallicFactor":0,"roughnessFactor":1}}],"buffers":[{"uri":"data:application/octet-stream;base64,","byteLength":1290},{"uri":"data:application/octet-stream;base64,","byteLength":2208},{"uri":"data:application/octet-stream;base64,","byteLength":972},{"uri":"data:application/octet-stream;base64,","byteLength":1992},{"uri":"data:application/gltf-buffer;base64,","byteLength":1472},{"uri":"data:application/gltf-buffer;base64,","byteLength":1328}],"bufferViews":[{"buffer":0,"byteOffset":0,"byteLength":1290,"target":34963},{"buffer":1,"byteOffset":0,"byteLength":2208},{"buffer":2,"byteOffset":0,"byteLength":972,"target":34963},{"buffer":3,"byteOffset":0,"byteLength":1992},{"buffer":4,"byteOffset":0,"target":34962,"byteLength":1472},{"buffer":5,"byteOffset":0,"target":34962,"byteLength":1328}],"accessors":[{"bufferView":0,"byteOffset":0,"componentType":5123,"count":645,"type":"SCALAR","max":[183],"min":[0]},{"bufferView":1,"byteOffset":0,"componentType":5126,"count":184,"type":"VEC3","max":[17,110,18],"min":[-17,-6,-12]},{"bufferView":2,"byteOffset":0,"componentType":5123,"count":486,"type":"SCALAR","max":[165],"min":[0]},{"bufferView":3,"byteOffset":0,"componentType":5126,"count":166,"type":"VEC3","max":[23,115,14],"min":[-23,18,-15]},{"bufferView":4,"byteOffset":0,"componentType":5126,"count":184,"type":"VEC2","max":[0.9285714285714285,0.66],"min":[0.07142857142857142,0.33]},{"bufferView":5,"byteOffset":0,"componentType":5126,"count":166,"type":"VEC2","max":[0.3571428571428571,0.66],"min":[0.21428571428571427,0.33]}],"asset":{"version":"2.0"}}