{"scene": 0, "scenes": [{"nodes": [0]}], "nodes": [{"mesh": 0}], "meshes": [{"primitives": [{"attributes": {"POSITION": 1, "TEXCOORD_0": 4}, "indices": 0, "material": 0}, {"attributes": {"POSITION": 3, "TEXCOORD_0": 5}, "indices": 2, "material": 1}]}], "textures": [{"source": 0, "sampler": 0}], "images": [{"uri": "player_halberd_palette.png"}], "samplers": [{"magFilter": 9728, "minFilter": 9987, "wrapS": 33648, "wrapT": 33648}, {"magFilter": 9728, "minFilter": 9987, "wrapS": 33648, "wrapT": 33648}], "materials": [{"pbrMetallicRoughness": {"baseColorTexture": {"index": 0}, "metallicFactor": 0, "roughnessFactor": 1}}, {"alphaMode": "BLEND", "pbrMetallicRoughness": {"baseColorTexture": {"index": 0}, "metallicFactor": 0, "roughnessFactor": 1}}], "buffers": [{"uri": "player_halberd_buf0.bin", "byteLength": 348}, {"uri": "player_halberd_buf1.bin", "byteLength": 480}, {"uri": "player_halberd_buf2.bin", "byteLength": 876}, {"uri": "player_halberd_buf3.bin", "byteLength": 1224}, {"uri": "player_halberd_buf4.bin", "byteLength": 320}, {"uri": "player_halberd_buf5.bin", "byteLength": 816}], "bufferViews": [{"buffer": 0, "byteOffset": 0, "byteLength": 348, "target": 34963}, {"buffer": 1, "byteOffset": 0, "byteLength": 480}, {"buffer": 2, "byteOffset": 0, "byteLength": 876, "target": 34963}, {"buffer": 3, "byteOffset": 0, "byteLength": 1224}, {"buffer": 4, "byteOffset": 0, "target": 34962, "byteLength": 320}, {"buffer": 5, "byteOffset": 0, "target": 34962, "byteLength": 816}], "accessors": [{"bufferView": 0, "byteOffset": 0, "componentType": 5123, "count": 174, "type": "SCALAR", "max": [39], "min": [0]}, {"bufferView": 1, "byteOffset": 0, "componentType": 5126, "count": 40, "type": "VEC3", "max": [-30, 164, 126], "min": [-36, 41, -111]}, {"bufferView": 2, "byteOffset": 0, "componentType": 5123, "count": 438, "type": "SCALAR", "max": [101], "min": [0]}, {"bufferView": 3, "byteOffset": 0, "componentType": 5126, "count": 102, "type": "VEC3", "max": [-28, 181, 164], "min": [-35, 121, 68]}, {"bufferView": 4, "byteOffset": 0, "componentType": 5126, "count": 40, "type": "VEC2", "max": [0.875, 0.66], "min": [0.375, 0.33]}, {"bufferView": 5, "byteOffset": 0, "componentType": 5126, "count": 102, "type": "VEC2", "max": [0.625, 0.66], "min": [0.125, 0.33]}], "asset": {"version": "2.0"}}