{"scene":0,"scenes":[{"nodes":[0]}],"nodes":[{"mesh":0}],"meshes":[{"primitives":[{"attributes":{"POSITION":1,"TEXCOORD_0":4},"indices":0,"material":0},{"attributes":{"POSITION":3,"TEXCOORD_0":5},"indices":2,"material":1}]}],"textures":[{"source":0,"sampler":0}],"images":[{"uri":"data:image/png;base64,"}],"samplers":[{"magFilter":9728,"minFilter":9987,"wrapS":33648,"wrapT":33648},{"magFilter":9728,"minFilter":9987,"wrapS":33648,"wrapT":33648}],"materials":[{"pbrMetallicRoughness":{"baseColorTexture":{"index":0},"metallicFactor":0,"roughnessFactor":1}},{"alphaMode":"BLEND","pbrMetallicRoughness":{"baseColorTexture":{"index":0},"metallicFactor":0,"roughnessFactor":1}}],"buffers":[{"uri":"data:application/octet-stream;base64,","byteLength":480},{"uri":"data:application/octet-stream;base64,","byteLength":576},{"uri":"data:application/octet-stream;base64,","byteLength":696},{"uri":"data:application/octet-stream;base64,","byteLength":864},{"uri":"data:application/gltf-buffer;base64,","byteLength":384},{"uri":"data:application/gltf-buffer;base64,","byteLength":576}],"bufferViews":[{"buffer":0,"byteOffset":0,"byteLength":480,"target":34963},{"buffer":1,"byteOffset":0,"byteLength":576},{"buffer":2,"byteOffset":0,"byteLength":696,"target":34963},{"buffer":3,"byteOffset":0,"byteLength":864},{"buffer":4,"byteOffset":0,"target":34962,"byteLength":384},{"buffer":5,"byteOffset":0,"target":34962,"byteLength":576}],"accessors":[{"bufferView":0,"byteOffset":0,"componentType":5123,"count":240,"type":"SCALAR","max":[47],"min":[0]},{"bufferView":1,"byteOffset":0,"componentType":5126,"count":48,"type":"VEC3","max":[-25,105,21],"min":[-38,86,-22]},{"bufferView":2,"byteOffset":0,"componentType":5123,"count":348,"type":"SCALAR","max":[71],"min":[0]},{"bufferView":3,"byteOffset":0,"componentType":5126,"count":72,"type":"VEC3","max":[-28,150,60],"min":[-35,79,-81]},{"bufferView":4,"byteOffset":0,"componentType":5126,"count":48,"type":"VEC2","max":[0.25,0.66],"min":[0.25,0.33]},{"bufferView":5,"byteOffset":0,"componentType":5126,"count":72,"type":"VEC2","max":[0.75,0.66],"min":[0.75,0.33]}],"asset":{"version":"2.0"}}