{"scene": 0, "scenes": [{"nodes": [0]}], "nodes": [{"mesh": 0}], "meshes": [{"primitives": [{"attributes": {"POSITION": 1, "TEXCOORD_0": 36}, "indices": 0, "targets": [{"POSITION": 2}, {"POSITION": 3}, {"POSITION": 4}, {"POSITION": 5}, {"POSITION": 6}, {"POSITION": 7}, {"POSITION": 8}, {"POSITION": 9}, {"POSITION": 10}, {"POSITION": 11}, {"POSITION": 12}, {"POSITION": 13}, {"POSITION": 14}, {"POSITION": 15}, {"POSITION": 16}, {"POSITION": 17}, {"POSITION": 18}, {"POSITION": 19}, {"POSITION": 20}, {"POSITION": 21}, {"POSITION": 22}, {"POSITION": 23}, {"POSITION": 24}, {"POSITION": 25}, {"POSITION": 26}, {"POSITION": 27}, {"POSITION": 28}, {"POSITION": 29}], "material": 0}], "weights": [0, 0, 0, 0, 0, 0, 0, 0, 0, 0, 0, 0, 0, 0, 0, 0, 0, 0, 0, 0, 0, 0, 0, 0, 0, 0, 0, 0]}], "textures": [{"source": 0, "sampler": 0}], "images": [{"uri": "player_helm_palette.png"}], "samplers": [{"magFilter": 9728, "minFilter": 9987, "wrapS": 33648, "wrapT": 33648}], "materials": [{"pbrMetallicRoughness": {"baseColorTexture": {"index": 0}, "metallicFactor": 0, "roughnessFactor": 1}}], "animations": [{"samplers": [{"input": 30, "interpolation": "STEP", "output": 31}], "channels": [{"sampler": 0, "target": {"node": 0, "path": "weights"}}], "name": "idle"}, {"samplers": [{"input": 32, "interpolation": "STEP", "output": 33}], "channels": [{"sampler": 0, "target": {"node": 0, "path": "weights"}}], "name": "eat"}, {"samplers": [{"input": 34, "interpolation": "STEP", "output": 35}], "channels": [{"sampler": 0, "target": {"node": 0, "path": "weights"}}], "name": "run"}], "buffers": [{"uri": "player_helm_buf0.bin", "byteLength": 1068}, {"uri": "player_helm_buf1.bin", "byteLength": 2244}, {"uri": "player_helm_buf2.bin", "byteLength": 2244}, {"uri": "player_helm_buf3.bin", "byteLength": 2244}, {"uri": "player_helm_buf4.bin", "byteLength": 2244}, {"uri": "player_helm_buf5.bin", "byteLength": 2244}, {"uri": "player_helm_buf6.bin", "byteLength": 2244}, {"uri": "player_helm_buf7.bin", "byteLength": 2244}, {"uri": "player_helm_buf8.bin", "byteLength": 2244}, {"uri": "player_helm_buf9.bin", "byteLength": 2244}, {"uri": "player_helm_buf10.bin", "byteLength": 2244}, {"uri": "player_helm_buf11.bin", "byteLength": 2244}, {"uri": "player_helm_buf12.bin", "byteLength": 2244}, {"uri": "player_helm_buf13.bin", "byteLength": 2244}, {"uri": "player_helm_buf14.bin", "byteLength": 2244}, {"uri": "player_helm_buf15.bin", "byteLength": 2244}, {"uri": "player_helm_buf16.bin", "byteLength": 2244}, {"uri": "player_helm_buf17.bin", "byteLength": 2244}, {"uri": "player_helm_buf18.bin", "byteLength": 2244}, {"uri": "player_helm_buf19.bin", "byteLength": 2244}, {"uri": "player_helm_buf20.bin", "byteLength": 2244}, {"uri": "player_helm_buf21.bin", "byteLength": 2244}, {"uri": "player_helm_buf22.bin", "byteLength": 2244}, {"uri": "player_helm_buf23.bin", "byteLength": 2244}, {"uri": "player_helm_buf24.bin", "byteLength": 2244}, {"uri": "player_helm_buf25.bin", "byteLength": 2244}, {"uri": "player_helm_buf26.bin", "byteLength": 2244}, {"uri": "player_helm_buf27.bin", "byteLength": 2244}, {"uri": "player_helm_buf28.bin", "byteLength": 2244}, {"uri": "player_helm_buf29.bin", "byteLength": 2244}, {"uri": "player_helm_buf30.bin", "byteLength": 1392}, {"uri": "player_helm_buf31.bin", "byteLength": 1160}, {"uri": "player_helm_buf32.bin", "byteLength": 928}, {"uri": "player_helm_buf33.bin", "byteLength": 1496}], "bufferViews": [{"buffer": 0, "byteOffset": 0, "byteLength": 1068, "target": 34963}, {"buffer": 1, "byteOffset": 0, "byteLength": 2244}, {"buffer": 2, "byteOffset": 0, "byteLength": 2244, "target": 34962}, {"buffer": 3, "byteOffset": 0, "byteLength": 2244, "target": 34962}, {"buffer": 4, "byteOffset": 0, "byteLength": 2244, "target": 34962}, {"buffer": 5, "byteOffset": 0, "byteLength": 2244, "target": 34962}, {"buffer": 6, "byteOffset": 0, "byteLength": 2244, "target": 34962}, {"buffer": 7, "byteOffset": 0, "byteLength": 2244, "target": 34962}, {"buffer": 8, "byteOffset": 0, "byteLength": 2244, "target": 34962}, {"buffer": 9, "byteOffset": 0, "byteLength": 2244, "target": 34962}, {"buffer": 10, "byteOffset": 0, "byteLength": 2244, "target": 34962}, {"buffer": 11, "byteOffset": 0, "byteLength": 2244, "target": 34962}, {"buffer": 12, "byteOffset": 0, "byteLength": 2244, "target": 34962}, {"buffer": 13, "byteOffset": 0, "byteLength": 2244, "target": 34962}, {"buffer": 14, "byteOffset": 0, "byteLength": 2244, "target": 34962}, {"buffer": 15, "byteOffset": 0, "byteLength": 2244, "target": 34962}, {"buffer": 16, "byteOffset": 0, "byteLength": 2244, "target": 34962}, {"buffer": 17, "byteOffset": 0, "byteLength": 2244, "target": 34962}, {"buffer": 18, "byteOffset": 0, "byteLength": 2244, "target": 34962}, {"buffer": 19, "byteOffset": 0, "byteLength": 2244, "target": 34962}, {"buffer": 20, "byteOffset": 0, "byteLength": 2244, "target": 34962}, {"buffer": 21, "byteOffset": 0, "byteLength": 2244, "target": 34962}, {"buffer": 22, "byteOffset": 0, "byteLength": 2244, "target": 34962}, {"buffer": 23, "byteOffset": 0, "byteLength": 2244, "target": 34962}, {"buffer": 24, "byteOffset": 0, "byteLength": 2244, "target": 34962}, {"buffer": 25, "byteOffset": 0, "byteLength": 2244, "target": 34962}, {"buffer": 26, "byteOffset": 0, "byteLength": 2244, "target": 34962}, {"buffer": 27, "byteOffset": 0, "byteLength": 2244, "target": 34962}, {"buffer": 28, "byteOffset": 0, "byteLength": 2244, "target": 34962}, {"buffer": 29, "byteOffset": 0, "byteLength": 2244, "target": 34962}, {"buffer": 30, "byteOffset": 0, "byteLength": 48}, {"buffer": 30, "byteOffset": 48, "byteLength": 1344}, {"buffer": 31, "byteOffset": 0, "byteLength": 40}, {"buffer": 31, "byteOffset": 40, "byteLength": 1120}, {"buffer": 32, "byteOffset": 0, "byteLength": 32}, {"buffer": 32, "byteOffset": 32, "byteLength": 896}, {"buffer": 33, "byteOffset": 0, "target": 34962, "byteLength": 1496}], "accessors": [{"bufferView": 0, "byteOffset": 0, "componentType": 5123, "count": 534, "type": "SCALAR", "max": [186], "min": [0]}, {"bufferView": 1, "byteOffset": 0, "componentType": 5126, "count": 187, "type": "VEC3", "max": [12, 202, 17], "min": [-12, 164, -10]}, {"bufferView": 2, "byteOffset": 0, "componentType": 5126, "count": 187, "type": "VEC3", "max": [0, -2, 0], "min": [0, -2, 0]}, {"bufferView": 3, "byteOffset": 0, "componentType": 5126, "count": 187, "type": "VEC3", "max": [0, -3, 0], "min": [0, -3, 0]}, {"bufferView": 4, "byteOffset": 0, "componentType": 5126, "count": 187, "type": "VEC3", "max": [0, -2, 1], "min": [-1, -2, 0]}, {"bufferView": 5, "byteOffset": 0, "componentType": 5126, "count": 187, "type": "VEC3", "max": [0, -3, 1], "min": [-1, -3, 0]}, {"bufferView": 6, "byteOffset": 0, "componentType": 5126, "count": 187, "type": "VEC3", "max": [1, -0.636363636363626, 3], "min": [-3, -2, -1]}, {"bufferView": 7, "byteOffset": 0, "componentType": 5126, "count": 187, "type": "VEC3", "max": [3, -1.636363636363626, 3.090909090909091], "min": [-5, -3, -3.909090909090909]}, {"bufferView": 8, "byteOffset": 0, "componentType": 5126, "count": 187, "type": "VEC3", "max": [4, -0.636363636363626, 4.090909090909091], "min": [-6, -2.636363636363626, -3.90909090909091]}, {"bufferView": 9, "byteOffset": 0, "componentType": 5126, "count": 187, "type": "VEC3", "max": [3, -1.636363636363626, 3.090909090909091], "min": [-5, -3, -3.909090909090909]}, {"bufferView": 10, "byteOffset": 0, "componentType": 5126, "count": 187, "type": "VEC3", "max": [3, -1.636363636363626, 3.090909090909091], "min": [-5, -3, -3.909090909090909]}, {"bufferView": 11, "byteOffset": 0, "componentType": 5126, "count": 187, "type": "VEC3", "max": [0, -3, 0], "min": [0, -3, 0]}, {"bufferView": 12, "byteOffset": 0, "componentType": 5126, "count": 187, "type": "VEC3", "max": [0, -2, 0], "min": [0, -2, 0]}, {"bufferView": 13, "byteOffset": 0, "componentType": 5126, "count": 187, "type": "VEC3", "max": [0, -3, 0], "min": [0, -3, 0]}, {"bufferView": 14, "byteOffset": 0, "componentType": 5126, "count": 187, "type": "VEC3", "max": [0, -2, 0], "min": [0, -2, 0]}, {"bufferView": 15, "byteOffset": 0, "componentType": 5126, "count": 187, "type": "VEC3", "max": [6, 0, 17], "min": [-3, -3, 8]}, {"bufferView": 16, "byteOffset": 0, "componentType": 5126, "count": 187, "type": "VEC3", "max": [16, 0, 30], "min": [-1, -6, 12]}, {"bufferView": 17, "byteOffset": 0, "componentType": 5126, "count": 187, "type": "VEC3", "max": [12, 0, 30], "min": [0, -6, 15]}, {"bufferView": 18, "byteOffset": 0, "componentType": 5126, "count": 187, "type": "VEC3", "max": [8, 1, 34], "min": [0, -7, 20]}, {"bufferView": 19, "byteOffset": 0, "componentType": 5126, "count": 187, "type": "VEC3", "max": [3, 1, 34], "min": [0, -8, 21]}, {"bufferView": 20, "byteOffset": 0, "componentType": 5126, "count": 187, "type": "VEC3", "max": [0, 0, 39], "min": [0, -10, 25]}, {"bufferView": 21, "byteOffset": 0, "componentType": 5126, "count": 187, "type": "VEC3", "max": [0, 0, 20], "min": [0, -5, 13]}, {"bufferView": 22, "byteOffset": 0, "componentType": 5126, "count": 187, "type": "VEC3", "max": [-10, 0, 68], "min": [-14, -9, 52]}, {"bufferView": 23, "byteOffset": 0, "componentType": 5126, "count": 187, "type": "VEC3", "max": [-3, -3, 47], "min": [-6, -9, 36]}, {"bufferView": 24, "byteOffset": 0, "componentType": 5126, "count": 187, "type": "VEC3", "max": [0, -1, 25], "min": [0, -4, 20]}, {"bufferView": 25, "byteOffset": 0, "componentType": 5126, "count": 187, "type": "VEC3", "max": [4, -1, 47], "min": [2, -7, 38]}, {"bufferView": 26, "byteOffset": 0, "componentType": 5126, "count": 187, "type": "VEC3", "max": [12, 0, 68], "min": [9, -9, 52]}, {"bufferView": 27, "byteOffset": 0, "componentType": 5126, "count": 187, "type": "VEC3", "max": [4, -3, 47], "min": [2, -9, 36]}, {"bufferView": 28, "byteOffset": 0, "componentType": 5126, "count": 187, "type": "VEC3", "max": [0, -1, 25], "min": [0, -4, 21]}, {"bufferView": 29, "byteOffset": 0, "componentType": 5126, "count": 187, "type": "VEC3", "max": [-4, -1, 47], "min": [-6, -7, 38]}, {"bufferView": 30, "byteOffset": 0, "componentType": 5126, "count": 12, "type": "SCALAR", "max": [5.04], "min": [0.42]}, {"bufferView": 31, "byteOffset": 0, "componentType": 5126, "count": 336, "type": "SCALAR", "max": [1], "min": [0]}, {"bufferView": 32, "byteOffset": 0, "componentType": 5126, "count": 10, "type": "SCALAR", "max": [1.46], "min": [0.08]}, {"bufferView": 33, "byteOffset": 0, "componentType": 5126, "count": 280, "type": "SCALAR", "max": [1], "min": [0]}, {"bufferView": 34, "byteOffset": 0, "componentType": 5126, "count": 8, "type": "SCALAR", "max": [0.68], "min": [0.1]}, {"bufferView": 35, "byteOffset": 0, "componentType": 5126, "count": 224, "type": "SCALAR", "max": [1], "min": [0]}, {"bufferView": 36, "byteOffset": 0, "componentType": 5126, "count": 187, "type": "VEC2", "max": [0.9285714285714285, 0.66], "min": [0.07142857142857142, 0.33]}], "asset": {"version": "2.0"}}