{"scene":0,"scenes":[{"nodes":[0]}],"nodes":[{"mesh":0}],"meshes":[{"primitives":[{"attributes":{"POSITION":1,"TEXCOORD_0":72},"indices":0,"targets":[{"POSITION":4},{"POSITION":6},{"POSITION":8},{"POSITION":10},{"POSITION":12},{"POSITION":14},{"POSITION":16},{"POSITION":18},{"POSITION":20},{"POSITION":22},{"POSITION":24},{"POSITION":26},{"POSITION":28},{"POSITION":30},{"POSITION":32},{"POSITION":34},{"POSITION":36},{"POSITION":38},{"POSITION":40},{"POSITION":42},{"POSITION":44},{"POSITION":46},{"POSITION":48},{"POSITION":50},{"POSITION":52},{"POSITION":54},{"POSITION":56},{"POSITION":58},{"POSITION":60},{"POSITION":62},{"POSITION":64}],"material":0},{"attributes":{"POSITION":3,"TEXCOORD_0":73},"indices":2,"targets":[{"POSITION":5},{"POSITION":7},{"POSITION":9},{"POSITION":11},{"POSITION":13},{"POSITION":15},{"POSITION":17},{"POSITION":19},{"POSITION":21},{"POSITION":23},{"POSITION":25},{"POSITION":27},{"POSITION":29},{"POSITION":31},{"POSITION":33},{"POSITION":35},{"POSITION":37},{"POSITION":39},{"POSITION":41},{"POSITION":43},{"POSITION":45},{"POSITION":47},{"POSITION":49},{"POSITION":51},{"POSITION":53},{"POSITION":55},{"POSITION":57},{"POSITION":59},{"POSITION":61},{"POSITION":63},{"POSITION":65}],"material":1}],"weights":[1,0,0,0,0,0,0,0,0,0,0,0,0,0,0,0,0,0,0,0,0,0,0,0,0,0,0,0,0,0,0]}],"textures":[{"source":0,"sampler":0}],"images":[{"uri":"data:image/png;base64,"}],"samplers":[{"magFilter":9728,"minFilter":9987,"wrapS":33648,"wrapT":33648},{"magFilter":9728,"minFilter":9987,"wrapS":33648,"wrapT":33648}],"materials":[{"pbrMetallicRoughness":{"baseColorTexture":{"index":0},"metallicFactor":0,"roughnessFactor":1}},{"alphaMode":"BLEND","pbrMetallicRoughness":{"baseColorTexture":{"index":0},"metallicFactor":0,"roughnessFactor":1}}],"animations":[{"samplers":[{"input":66,"interpolation":"STEP","output":67}],"channels":[{"sampler":0,"target":{"node":0,"path":"weights"}}],"name":"idle"},{"samplers":[{"input":68,"interpolation":"STEP","output":69}],"channels":[{"sampler":0,"target":{"node":0,"path":"weights"}}],"name":"eat"},{"samplers":[{"input":70,"interpolation":"STEP","output":71}],"channels":[{"sampler":0,"target":{"node":0,"path":"weights"}}],"name":"attack"}],"buffers":[{"uri":"data:application/octet-stream;base64,","byteLength":966},{"uri":"data:application/octet-stream;base64,","byteLength":2148},{"uri":"data:application/octet-stream;base64,","byteLength":918},{"uri":"data:application/octet-stream;base64,","byteLength":1908},{"uri":"data:application/octet-stream;base64,","byteLength":2148},{"uri":"data:application/octet-stream;base64,","byteLength":1908},{"uri":"data:application/octet-stream;base64,","byteLength":2148},{"uri":"data:application/octet-stream;base64,","byteLength":1908},{"uri":"data:application/octet-stream;base64,","byteLength":2148},{"uri":"data:application/octet-stream;base64,","byteLength":1908},{"uri":"data:application/octet-stream;base64,","byteLength":2148},{"uri":"data:application/octet-stream;base64,","byteLength":1908},{"uri":"data:application/octet-stream;base64,","byteLength":2148},{"uri":"data:application/octet-stream;base64,","byteLength":1908},{"uri":"data:application/octet-stream;base64,","byteLength":2148},{"uri":"data:application/octet-stream;base64,","byteLength":1908},{"uri":"data:application/octet-stream;base64,","byteLength":2148},{"uri":"data:application/octet-stream;base64,","byteLength":1908},{"uri":"data:application/octet-stream;base64,","byteLength":2148},{"uri":"data:application/octet-stream;base64,","byteLength":1908},{"uri":"data:application/octet-stream;base64,","byteLength":2148},{"uri":"data:application/octet-stream;base64,","byteLength":1908},{"uri":"data:application/octet-stream;base64,","byteLength":2148},{"uri":"data:application/octet-stream;base64,","byteLength":1908},{"uri":"data:application/octet-stream;base64,","byteLength":2148},{"uri":"data:application/octet-stream;base64,","byteLength":1908},{"uri":"data:application/octet-stream;base64,","byteLength":2148},{"uri":"data:application/octet-stream;base64,","byteLength":1908},{"uri":"data:application/octet-stream;base64,","byteLength":2148},{"uri":"data:application/octet-stream;base64,","byteLength":1908},{"uri":"data:application/octet-stream;base64,","byteLength":2148},{"uri":"data:application/octet-stream;base64,","byteLength":1908},{"uri":"data:application/octet-stream;base64,","byteLength":2148},{"uri":"data:application/octet-stream;base64,","byteLength":1908},{"uri":"data:application/octet-stream;base64,","byteLength":2148},{"uri":"data:application/octet-stream;base64,","byteLength":1908},{"uri":"data:application/octet-stream;base64,","byteLength":2148},{"uri":"data:application/octet-stream;base64,","byteLength":1908},{"uri":"data:application/octet-stream;base64,","byteLength":2148},{"uri":"data:application/octet-stream;base64,","byteLength":1908},{"uri":"data:application/octet-stream;base64,","byteLength":2148},{"uri":"data:application/octet-stream;base64,","byteLength":1908},{"uri":"data:application/octet-stream;base64,","byteLength":2148},{"uri":"data:application/octet-stream;base64,","byteLength":1908},{"uri":"data:application/octet-stream;base64,","byteLength":2148},{"uri":"data:application/octet-stream;base64,","byteLength":1908},{"uri":"data:application/octet-stream;base64,","byteLength":2148},{"uri":"data:application/octet-stream;base64,","byteLength":1908},{"uri":"data:application/octet-stream;base64,","byteLength":2148},{"uri":"data:application/octet-stream;base64,","byteLength":1908},{"uri":"data:application/octet-stream;base64,","byteLength":2148},{"uri":"data:application/octet-stream;base64,","byteLength":1908},{"uri":"data:application/octet-stream;base64,","byteLength":2148},{"uri":"data:application/octet-stream;base64,","byteLength":1908},{"uri":"data:application/octet-stream;base64,","byteLength":2148},{"uri":"data:application/octet-stream;base64,","byteLength":1908},{"uri":"data:application/octet-stream;base64,","byteLength":2148},{"uri":"data:application/octet-stream;base64,","byteLength":1908},{"uri":"data:application/octet-stream;base64,","byteLength":2148},{"uri":"data:application/octet-stream;base64,","byteLength":1908},{"uri":"data:application/octet-stream;base64,","byteLength":2148},{"uri":"data:application/octet-stream;base64,","byteLength":1908},{"uri":"data:application/octet-stream;base64,","byteLength":2148},{"uri":"data:application/octet-stream;base64,","byteLength":1908},{"uri":"data:application/octet-stream;base64,","byteLength":2148},{"uri":"data:application/octet-stream;base64,","byteLength":1908},{"uri":"data:application/octet-stream;base64,","byteLength":1536},{"uri":"data:application/octet-stream;base64,","byteLength":1280},{"uri":"data:application/octet-stream;base64,","byteLength":1408},{"uri":"data:application/gltf-buffer;base64,","byteLength":1432},{"uri":"data:application/gltf-buffer;base64,","byteLength":1272}],"bufferViews":[{"buffer":0,"byteOffset":0,"byteLength":966,"target":34963},{"buffer":1,"byteOffset":0,"byteLength":2148},{"buffer":2,"byteOffset":0,"byteLength":918,"target":34963},{"buffer":3,"byteOffset":0,"byteLength":1908},{"buffer":4,"byteOffset":0,"byteLength":2148,"target":34962},{"buffer":5,"byteOffset":0,"byteLength":1908,"target":34962},{"buffer":6,"byteOffset":0,"byteLength":2148,"target":34962},{"buffer":7,"byteOffset":0,"byteLength":1908,"target":34962},{"buffer":8,"byteOffset":0,"byteLength":2148,"target":34962},{"buffer":9,"byteOffset":0,"byteLength":1908,"target":34962},{"buffer":10,"byteOffset":0,"byteLength":2148,"target":34962},{"buffer":11,"byteOffset":0,"byteLength":1908,"target":34962},{"buffer":12,"byteOffset":0,"byteLength":2148,"target":34962},{"buffer":13,"byteOffset":0,"byteLength":1908,"target":34962},{"buffer":14,"byteOffset":0,"byteLength":2148,"target":34962},{"buffer":15,"byteOffset":0,"byteLength":1908,"target":34962},{"buffer":16,"byteOffset":0,"byteLength":2148,"target":34962},{"buffer":17,"byteOffset":0,"byteLength":1908,"target":34962},{"buffer":18,"byteOffset":0,"byteLength":2148,"target":34962},{"buffer":19,"byteOffset":0,"byteLength":1908,"target":34962},{"buffer":20,"byteOffset":0,"byteLength":2148,"target":34962},{"buffer":21,"byteOffset":0,"byteLength":1908,"target":34962},{"buffer":22,"byteOffset":0,"byteLength":2148,"target":34962},{"buffer":23,"byteOffset":0,"byteLength":1908,"target":34962},{"buffer":24,"byteOffset":0,"byteLength":2148,"target":34962},{"buffer":25,"byteOffset":0,"byteLength":1908,"target":34962},{"buffer":26,"byteOffset":0,"byteLength":2148,"target":34962},{"buffer":27,"byteOffset":0,"byteLength":1908,"target":34962},{"buffer":28,"byteOffset":0,"byteLength":2148,"target":34962},{"buffer":29,"byteOffset":0,"byteLength":1908,"target":34962},{"buffer":30,"byteOffset":0,"byteLength":2148,"target":34962},{"buffer":31,"byteOffset":0,"byteLength":1908,"target":34962},{"buffer":32,"byteOffset":0,"byteLength":2148,"target":34962},{"buffer":33,"byteOffset":0,"byteLength":1908,"target":34962},{"buffer":34,"byteOffset":0,"byteLength":2148,"target":34962},{"buffer":35,"byteOffset":0,"byteLength":1908,"target":34962},{"buffer":36,"byteOffset":0,"byteLength":2148,"target":34962},{"buffer":37,"byteOffset":0,"byteLength":1908,"target":34962},{"buffer":38,"byteOffset":0,"byteLength":2148,"target":34962},{"buffer":39,"byteOffset":0,"byteLength":1908,"target":34962},{"buffer":40,"byteOffset":0,"byteLength":2148,"target":34962},{"buffer":41,"byteOffset":0,"byteLength":1908,"target":34962},{"buffer":42,"byteOffset":0,"byteLength":2148,"target":34962},{"buffer":43,"byteOffset":0,"byteLength":1908,"target":34962},{"buffer":44,"byteOffset":0,"byteLength":2148,"target":34962},{"buffer":45,"byteOffset":0,"byteLength":1908,"target":34962},{"buffer":46,"byteOffset":0,"byteLength":2148,"target":34962},{"buffer":47,"byteOffset":0,"byteLength":1908,"target":34962},{"buffer":48,"byteOffset":0,"byteLength":2148,"target":34962},{"buffer":49,"byteOffset":0,"byteLength":1908,"target":34962},{"buffer":50,"byteOffset":0,"byteLength":2148,"target":34962},{"buffer":51,"byteOffset":0,"byteLength":1908,"target":34962},{"buffer":52,"byteOffset":0,"byteLength":2148,"target":34962},{"buffer":53,"byteOffset":0,"byteLength":1908,"target":34962},{"buffer":54,"byteOffset":0,"byteLength":2148,"target":34962},{"buffer":55,"byteOffset":0,"byteLength":1908,"target":34962},{"buffer":56,"byteOffset":0,"byteLength":2148,"target":34962},{"buffer":57,"byteOffset":0,"byteLength":1908,"target":34962},{"buffer":58,"byteOffset":0,"byteLength":2148,"target":34962},{"buffer":59,"byteOffset":0,"byteLength":1908,"target":34962},{"buffer":60,"byteOffset":0,"byteLength":2148,"target":34962},{"buffer":61,"byteOffset":0,"byteLength":1908,"target":34962},{"buffer":62,"byteOffset":0,"byteLength":2148,"target":34962},{"buffer":63,"byteOffset":0,"byteLength":1908,"target":34962},{"buffer":64,"byteOffset":0,"byteLength":2148,"target":34962},{"buffer":65,"byteOffset":0,"byteLength":1908,"target":34962},{"buffer":66,"byteOffset":0,"byteLength":48},{"buffer":66,"byteOffset":48,"byteLength":1488},{"buffer":67,"byteOffset":0,"byteLength":40},{"buffer":67,"byteOffset":40,"byteLength":1240},{"buffer":68,"byteOffset":0,"byteLength":44},{"buffer":68,"byteOffset":44,"byteLength":1364},{"buffer":69,"byteOffset":0,"target":34962,"byteLength":1432},{"buffer":70,"byteOffset":0,"target":34962,"byteLength":1272}],"accessors":[{"bufferView":0,"byteOffset":0,"componentType":5123,"count":483,"type":"SCALAR","max":[178],"min":[0]},{"bufferView":1,"byteOffset":0,"componentType":5126,"count":179,"type":"VEC3","max":[33,165,15],"min":[-33,114,-10]},{"bufferView":2,"byteOffset":0,"componentType":5123,"count":459,"type":"SCALAR","max":[158],"min":[0]},{"bufferView":3,"byteOffset":0,"componentType":5126,"count":159,"type":"VEC3","max":[40,171,17],"min":[-40,115,-13]},{"bufferView":4,"byteOffset":0,"componentType":5126,"count":179,"type":"VEC3","max":[0,4.75,4.333333333333333],"min":[0,-4,-8.666666666666668]},{"bufferView":5,"byteOffset":0,"componentType":5126,"count":159,"type":"VEC3","max":[0,2,1.3333333333333335],"min":[0,-5,-3.666666666666667]},{"bufferView":6,"byteOffset":0,"componentType":5126,"count":179,"type":"VEC3","max":[0,3.75,4.333333333333333],"min":[0,-5,-8.666666666666668]},{"bufferView":7,"byteOffset":0,"componentType":5126,"count":159,"type":"VEC3","max":[0,1,1.3333333333333335],"min":[0,-6,-3.666666666666667]},{"bufferView":8,"byteOffset":0,"componentType":5126,"count":179,"type":"VEC3","max":[0,4.75,4.333333333333333],"min":[-1,-4,-8.666666666666668]},{"bufferView":9,"byteOffset":0,"componentType":5126,"count":159,"type":"VEC3","max":[0,2,2.333333333333333],"min":[-1,-5,-3.666666666666667]},{"bufferView":10,"byteOffset":0,"componentType":5126,"count":179,"type":"VEC3","max":[0,3,5],"min":[-1,-5,-10.333333333333334]},{"bufferView":11,"byteOffset":0,"componentType":5126,"count":159,"type":"VEC3","max":[0,2,3],"min":[-1,-6,-5.333333333333333]},{"bufferView":12,"byteOffset":0,"componentType":5126,"count":179,"type":"VEC3","max":[0,4.75,4.333333333333333],"min":[-1,-4,-8.666666666666668]},{"bufferView":13,"byteOffset":0,"componentType":5126,"count":159,"type":"VEC3","max":[0,2,2.333333333333333],"min":[-1,-5,-3.666666666666667]},{"bufferView":14,"byteOffset":0,"componentType":5126,"count":179,"type":"VEC3","max":[0,3.75,4.333333333333333],"min":[0,-5,-8.666666666666668]},{"bufferView":15,"byteOffset":0,"componentType":5126,"count":159,"type":"VEC3","max":[0,1,1.3333333333333335],"min":[0,-6,-3.666666666666667]},{"bufferView":16,"byteOffset":0,"componentType":5126,"count":179,"type":"VEC3","max":[0,4.75,4.333333333333333],"min":[0,-4,-8.666666666666668]},{"bufferView":17,"byteOffset":0,"componentType":5126,"count":159,"type":"VEC3","max":[0,2,1.3333333333333335],"min":[0,-5,-3.666666666666667]},{"bufferView":18,"byteOffset":0,"componentType":5126,"count":179,"type":"VEC3","max":[0,3.75,4.333333333333333],"min":[0,-5,-8.666666666666668]},{"bufferView":19,"byteOffset":0,"componentType":5126,"count":159,"type":"VEC3","max":[0,1,1.3333333333333335],"min":[0,-6,-3.666666666666667]},{"bufferView":20,"byteOffset":0,"componentType":5126,"count":179,"type":"VEC3","max":[0,3.75,4.333333333333333],"min":[0,-5,-8.666666666666668]},{"bufferView":21,"byteOffset":0,"componentType":5126,"count":159,"type":"VEC3","max":[0,1,1.3333333333333335],"min":[0,-6,-3.666666666666667]},{"bufferView":22,"byteOffset":0,"componentType":5126,"count":179,"type":"VEC3","max":[0,3.25,4.333333333333334],"min":[0,-5,-6.666666666666667]},{"bufferView":23,"byteOffset":0,"componentType":5126,"count":159,"type":"VEC3","max":[0,1,1.3333333333333335],"min":[0,-6,-3.6666666666666665]},{"bufferView":24,"byteOffset":0,"componentType":5126,"count":179,"type":"VEC3","max":[0,4.5,3.3333333333333335],"min":[0,-4,-7.666666666666667]},{"bufferView":25,"byteOffset":0,"componentType":5126,"count":159,"type":"VEC3","max":[0,2,1.3333333333333335],"min":[0,-5,-3.6666666666666665]},{"bufferView":26,"byteOffset":0,"componentType":5126,"count":179,"type":"VEC3","max":[0,2.75,4.333333333333333],"min":[0,-5,-8.666666666666668]},{"bufferView":27,"byteOffset":0,"componentType":5126,"count":159,"type":"VEC3","max":[0,1,1.3333333333333335],"min":[0,-6,-3.666666666666667]},{"bufferView":28,"byteOffset":0,"componentType":5126,"count":179,"type":"VEC3","max":[0,4.75,4.333333333333333],"min":[0,-4,-8.666666666666668]},{"bufferView":29,"byteOffset":0,"componentType":5126,"count":159,"type":"VEC3","max":[0,2,1.3333333333333335],"min":[0,-5,-3.666666666666667]},{"bufferView":30,"byteOffset":0,"componentType":5126,"count":179,"type":"VEC3","max":[3,6.055555555555543,17.38888888888889],"min":[-3.5,-5.444444444444457,-8.722222222222221]},{"bufferView":31,"byteOffset":0,"componentType":5126,"count":159,"type":"VEC3","max":[3,4.555555555555543,16.38888888888889],"min":[-2,-5.444444444444457,-2.7222222222222223]},{"bufferView":32,"byteOffset":0,"componentType":5126,"count":179,"type":"VEC3","max":[9,12.361111111111114,27.72222222222222],"min":[-5,-8.888888888888886,-12.833333333333332]},{"bufferView":33,"byteOffset":0,"componentType":5126,"count":159,"type":"VEC3","max":[10,8.111111111111114,31.72222222222222],"min":[-1,-8.888888888888886,-2.833333333333333]},{"bufferView":34,"byteOffset":0,"componentType":5126,"count":179,"type":"VEC3","max":[6,14.611111111111114,26.61111111111111],"min":[-2.583333333333332,-4.888888888888886,-0.9444444444444446]},{"bufferView":35,"byteOffset":0,"componentType":5126,"count":159,"type":"VEC3","max":[7,5.111111111111114,27.61111111111111],"min":[-2.333333333333332,-5.888888888888886,3.0555555555555554]},{"bufferView":36,"byteOffset":0,"componentType":5126,"count":179,"type":"VEC3","max":[5,19.77777777777777,33.5],"min":[-3.7222222222222214,-5.2222222222222285,12]},{"bufferView":37,"byteOffset":0,"componentType":5126,"count":159,"type":"VEC3","max":[5,3.7777777777777715,29.5],"min":[-1.2222222222222214,-5.2222222222222285,13]},{"bufferView":38,"byteOffset":0,"componentType":5126,"count":179,"type":"VEC3","max":[2.444444444444443,32.77777777777777,46.111111111111114],"min":[-14.055555555555557,-5.2222222222222285,10.277777777777779]},{"bufferView":39,"byteOffset":0,"componentType":5126,"count":159,"type":"VEC3","max":[2,4.7777777777777715,25.27777777777778],"min":[-2.555555555555557,-7.2222222222222285,14]},{"bufferView":40,"byteOffset":0,"componentType":5126,"count":179,"type":"VEC3","max":[3.944444444444443,35.77777777777777,51.05555555555556],"min":[-18.055555555555557,-6.7222222222222285,11.555555555555557]},{"bufferView":41,"byteOffset":0,"componentType":5126,"count":159,"type":"VEC3","max":[0.9444444444444429,6.2777777777777715,29.555555555555557],"min":[-6.055555555555557,-10.722222222222229,17]},{"bufferView":42,"byteOffset":0,"componentType":5126,"count":179,"type":"VEC3","max":[1.9444444444444429,20.5,38.166666666666664],"min":[-9.055555555555557,-4.5,1.166666666666666]},{"bufferView":43,"byteOffset":0,"componentType":5126,"count":159,"type":"VEC3","max":[0,3.5,15.166666666666666],"min":[-3.055555555555557,-5.5,7.166666666666666]},{"bufferView":44,"byteOffset":0,"componentType":5126,"count":179,"type":"VEC3","max":[0,4.75,4.333333333333333],"min":[0,-4,-8.666666666666668]},{"bufferView":45,"byteOffset":0,"componentType":5126,"count":159,"type":"VEC3","max":[0,2,1.3333333333333335],"min":[0,-5,-3.666666666666667]},{"bufferView":46,"byteOffset":0,"componentType":5126,"count":179,"type":"VEC3","max":[3.055555555555557,7,20.333333333333332],"min":[-7.805555555555557,-3,-3.6666666666666665]},{"bufferView":47,"byteOffset":0,"componentType":5126,"count":159,"type":"VEC3","max":[2.055555555555557,2,5.333333333333334],"min":[-4.055555555555557,-3,-1.666666666666667]},{"bufferView":48,"byteOffset":0,"componentType":5126,"count":179,"type":"VEC3","max":[17.055555555555557,19.75,35.333333333333336],"min":[-23.055555555555557,-7,-10.666666666666668]},{"bufferView":49,"byteOffset":0,"componentType":5126,"count":159,"type":"VEC3","max":[5.055555555555557,10,11.333333333333332],"min":[-7.055555555555557,-9,-5.666666666666667]},{"bufferView":50,"byteOffset":0,"componentType":5126,"count":179,"type":"VEC3","max":[14.055555555555557,55.16666666666666,35.47222222222222],"min":[-24.555555555555557,-16.833333333333343,-21.77777777777778]},{"bufferView":51,"byteOffset":0,"componentType":5126,"count":159,"type":"VEC3","max":[6.055555555555557,17.166666666666657,11.222222222222221],"min":[-7.055555555555557,-10.833333333333343,-17.77777777777778]},{"bufferView":52,"byteOffset":0,"componentType":5126,"count":179,"type":"VEC3","max":[12.555555555555557,77.44444444444446,12.305555555555555],"min":[-27.305555555555557,-22.555555555555543,-30.444444444444443]},{"bufferView":53,"byteOffset":0,"componentType":5126,"count":159,"type":"VEC3","max":[5.055555555555557,20.444444444444457,5.555555555555555],"min":[-9.055555555555557,-10.555555555555543,-33.44444444444444]},{"bufferView":54,"byteOffset":0,"componentType":5126,"count":179,"type":"VEC3","max":[14.055555555555557,74.58333333333334,-3.8611111111111107],"min":[-15.555555555555557,-22.666666666666657,-39.361111111111114]},{"bufferView":55,"byteOffset":0,"componentType":5126,"count":159,"type":"VEC3","max":[3.944444444444443,20.333333333333343,-0.6111111111111107],"min":[-6.055555555555557,-9.666666666666657,-42.611111111111114]},{"bufferView":56,"byteOffset":0,"componentType":5126,"count":179,"type":"VEC3","max":[17.555555555555557,63.5,43.08333333333333],"min":[-22.555555555555557,-17.5,-10.666666666666666]},{"bufferView":57,"byteOffset":0,"componentType":5126,"count":159,"type":"VEC3","max":[5.055555555555557,19.5,21.333333333333336],"min":[-7.055555555555557,-10.5,-7.666666666666666]},{"bufferView":58,"byteOffset":0,"componentType":5126,"count":179,"type":"VEC3","max":[14.055555555555557,5.7222222222222285,73.19444444444444],"min":[-18.555555555555557,-11,34]},{"bufferView":59,"byteOffset":0,"componentType":5126,"count":159,"type":"VEC3","max":[6.055555555555557,1.2222222222222285,55.44444444444444],"min":[-7.055555555555557,-12,34]},{"bufferView":60,"byteOffset":0,"componentType":5126,"count":179,"type":"VEC3","max":[17.055555555555557,19.75,35.333333333333336],"min":[-23.055555555555557,-7,-10.666666666666668]},{"bufferView":61,"byteOffset":0,"componentType":5126,"count":159,"type":"VEC3","max":[5.055555555555557,10,11.333333333333332],"min":[-7.055555555555557,-9,-5.666666666666667]},{"bufferView":62,"byteOffset":0,"componentType":5126,"count":179,"type":"VEC3","max":[3.055555555555557,7,20.333333333333332],"min":[-7.805555555555557,-3,-3.6666666666666665]},{"bufferView":63,"byteOffset":0,"componentType":5126,"count":159,"type":"VEC3","max":[2.055555555555557,2,5.333333333333334],"min":[-4.055555555555557,-3,-1.666666666666667]},{"bufferView":64,"byteOffset":0,"componentType":5126,"count":179,"type":"VEC3","max":[0,4.75,4.333333333333333],"min":[0,-4,-8.666666666666668]},{"bufferView":65,"byteOffset":0,"componentType":5126,"count":159,"type":"VEC3","max":[0,2,1.3333333333333335],"min":[0,-5,-3.666666666666667]},{"bufferView":66,"byteOffset":0,"componentType":5126,"count":12,"type":"SCALAR","max":[5.04],"min":[0.42]},{"bufferView":67,"byteOffset":0,"componentType":5126,"count":372,"type":"SCALAR","max":[1],"min":[0]},{"bufferView":68,"byteOffset":0,"componentType":5126,"count":10,"type":"SCALAR","max":[1.46],"min":[0.08]},{"bufferView":69,"byteOffset":0,"componentType":5126,"count":310,"type":"SCALAR","max":[1],"min":[0]},{"bufferView":70,"byteOffset":0,"componentType":5126,"count":11,"type":"SCALAR","max":[1.42],"min":[0.08]},{"bufferView":71,"byteOffset":0,"componentType":5126,"count":341,"type":"SCALAR","max":[1],"min":[0]},{"bufferView":72,"byteOffset":0,"componentType":5126,"count":179,"type":"VEC2","max":[0.9166666666666667,0.66],"min":[0.08333333333333333,0.33]},{"bufferView":73,"byteOffset":0,"componentType":5126,"count":159,"type":"VEC2","max":[0.41666666666666663,0.66],"min":[0.25,0.33]}],"asset":{"version":"2.0"}}