{"scene":0,"scenes":[{"nodes":[0]}],"nodes":[{"mesh":0}],"meshes":[{"primitives":[{"attributes":{"POSITION":1,"TEXCOORD_0":4},"indices":0,"material":0},{"attributes":{"POSITION":3,"TEXCOORD_0":5},"indices":2,"material":1}]}],"textures":[{"source":0,"sampler":0}],"images":[{"uri":"player_staff_tex0.png"}],"samplers":[{"magFilter":9728,"minFilter":9987,"wrapS":33648,"wrapT":33648},{"magFilter":9728,"minFilter":9987,"wrapS":33648,"wrapT":33648}],"materials":[{"pbrMetallicRoughness":{"baseColorTexture":{"index":0},"metallicFactor":0,"roughnessFactor":1}},{"alphaMode":"BLEND","pbrMetallicRoughness":{"baseColorTexture":{"index":0},"metallicFactor":0,"roughnessFactor":1}}],"buffers":[{"uri":"player_staff_buf0.bin","byteLength":2292},{"uri":"player_staff_buf1.bin","byteLength":3672},{"uri":"player_staff_buf2.bin","byteLength":528},{"uri":"player_staff_buf3.bin","byteLength":588},{"uri":"player_staff_buf4.bin","byteLength":2448},{"uri":"player_staff_buf5.bin","byteLength":392}],"bufferViews":[{"buffer":0,"byteOffset":0,"byteLength":2292,"target":34963},{"buffer":1,"byteOffset":0,"byteLength":3672},{"buffer":2,"byteOffset":0,"byteLength":528,"target":34963},{"buffer":3,"byteOffset":0,"byteLength":588},{"buffer":4,"byteOffset":0,"target":34962,"byteLength":2448},{"buffer":5,"byteOffset":0,"target":34962,"byteLength":392}],"accessors":[{"bufferView":0,"byteOffset":0,"componentType":5123,"count":1146,"type":"SCALAR","max":[305],"min":[0]},{"bufferView":1,"byteOffset":0,"componentType":5126,"count":306,"type":"VEC3","max":[-9,167,131],"min":[-54,46,-98]},{"bufferView":2,"byteOffset":0,"componentType":5123,"count":264,"type":"SCALAR","max":[48],"min":[0]},{"bufferView":3,"byteOffset":0,"componentType":5126,"count":49,"type":"VEC3","max":[-20,164,147],"min":[-44,126,80]},{"bufferView":4,"byteOffset":0,"componentType":5126,"count":306,"type":"VEC2","max":[0.875,0.66],"min":[0.375,0.33]},{"bufferView":5,"byteOffset":0,"componentType":5126,"count":49,"type":"VEC2","max":[0.125,0.66],"min":[0.125,0.33]}],"asset":{"version":"2.0"}}