{"scene": 0, "scenes": [{"nodes": [0]}], "nodes": [{"mesh": 0}], "meshes": [{"primitives": [{"attributes": {"POSITION": 1, "TEXCOORD_0": 66}, "indices": 0, "targets": [{"POSITION": 4}, {"POSITION": 6}, {"POSITION": 8}, {"POSITION": 10}, {"POSITION": 12}, {"POSITION": 14}, {"POSITION": 16}, {"POSITION": 18}, {"POSITION": 20}, {"POSITION": 22}, {"POSITION": 24}, {"POSITION": 26}, {"POSITION": 28}, {"POSITION": 30}, {"POSITION": 32}, {"POSITION": 34}, {"POSITION": 36}, {"POSITION": 38}, {"POSITION": 40}, {"POSITION": 42}, {"POSITION": 44}, {"POSITION": 46}, {"POSITION": 48}, {"POSITION": 50}, {"POSITION": 52}, {"POSITION": 54}, {"POSITION": 56}, {"POSITION": 58}], "material": 0}, {"attributes": {"POSITION": 3, "TEXCOORD_0": 67}, "indices": 2, "targets": [{"POSITION": 5}, {"POSITION": 7}, {"POSITION": 9}, {"POSITION": 11}, {"POSITION": 13}, {"POSITION": 15}, {"POSITION": 17}, {"POSITION": 19}, {"POSITION": 21}, {"POSITION": 23}, {"POSITION": 25}, {"POSITION": 27}, {"POSITION": 29}, {"POSITION": 31}, {"POSITION": 33}, {"POSITION": 35}, {"POSITION": 37}, {"POSITION": 39}, {"POSITION": 41}, {"POSITION": 43}, {"POSITION": 45}, {"POSITION": 47}, {"POSITION": 49}, {"POSITION": 51}, {"POSITION": 53}, {"POSITION": 55}, {"POSITION": 57}, {"POSITION": 59}], "material": 1}], "weights": [1, 0, 0, 0, 0, 0, 0, 0, 0, 0, 0, 0, 0, 0, 0, 0, 0, 0, 0, 0, 0, 0, 0, 0, 0, 0, 0, 0]}], "textures": [{"source": 0, "sampler": 0}], "images": [{"uri": "player_body_palette.png"}], "samplers": [{"magFilter": 9728, "minFilter": 9987, "wrapS": 33648, "wrapT": 33648}, {"magFilter": 9728, "minFilter": 9987, "wrapS": 33648, "wrapT": 33648}], "materials": [{"pbrMetallicRoughness": {"baseColorTexture": {"index": 0}, "metallicFactor": 0, "roughnessFactor": 1}}, {"alphaMode": "BLEND", "pbrMetallicRoughness": {"baseColorTexture": {"index": 0}, "metallicFactor": 0, "roughnessFactor": 1}}], "animations": [{"samplers": [{"input": 60, "interpolation": "STEP", "output": 61}], "channels": [{"sampler": 0, "target": {"node": 0, "path": "weights"}}], "name": "idle"}, {"samplers": [{"input": 62, "interpolation": "STEP", "output": 63}], "channels": [{"sampler": 0, "target": {"node": 0, "path": "weights"}}], "name": "eat"}, {"samplers": [{"input": 64, "interpolation": "STEP", "output": 65}], "channels": [{"sampler": 0, "target": {"node": 0, "path": "weights"}}], "name": "run"}], "buffers": [{"uri": "player_body_buf0.bin", "byteLength": 966}, {"uri": "player_body_buf1.bin", "byteLength": 2148}, {"uri": "player_body_buf2.bin", "byteLength": 918}, {"uri": "player_body_buf3.bin", "byteLength": 1908}, {"uri": "player_body_buf4.bin", "byteLength": 2148}, {"uri": "player_body_buf5.bin", "byteLength": 1908}, {"uri": "player_body_buf6.bin", "byteLength": 2148}, {"uri": "player_body_buf7.bin", "byteLength": 1908}, {"uri": "player_body_buf8.bin", "byteLength": 2148}, {"uri": "player_body_buf9.bin", "byteLength": 1908}, {"uri": "player_body_buf10.bin", "byteLength": 2148}, {"uri": "player_body_buf11.bin", "byteLength": 1908}, {"uri": "player_body_buf12.bin", "byteLength": 2148}, {"uri": "player_body_buf13.bin", "byteLength": 1908}, {"uri": "player_body_buf14.bin", "byteLength": 2148}, {"uri": "player_body_buf15.bin", "byteLength": 1908}, {"uri": "player_body_buf16.bin", "byteLength": 2148}, {"uri": "player_body_buf17.bin", "byteLength": 1908}, {"uri": "player_body_buf18.bin", "byteLength": 2148}, {"uri": "player_body_buf19.bin", "byteLength": 1908}, {"uri": "player_body_buf20.bin", "byteLength": 2148}, {"uri": "player_body_buf21.bin", "byteLength": 1908}, {"uri": "player_body_buf22.bin", "byteLength": 2148}, {"uri": "player_body_buf23.bin", "byteLength": 1908}, {"uri": "player_body_buf24.bin", "byteLength": 2148}, {"uri": "player_body_buf25.bin", "byteLength": 1908}, {"uri": "player_body_buf26.bin", "byteLength": 2148}, {"uri": "player_body_buf27.bin", "byteLength": 1908}, {"uri": "player_body_buf28.bin", "byteLength": 2148}, {"uri": "player_body_buf29.bin", "byteLength": 1908}, {"uri": "player_body_buf30.bin", "byteLength": 2148}, {"uri": "player_body_buf31.bin", "byteLength": 1908}, {"uri": "player_body_buf32.bin", "byteLength": 2148}, {"uri": "player_body_buf33.bin", "byteLength": 1908}, {"uri": "player_body_buf34.bin", "byteLength": 2148}, {"uri": "player_body_buf35.bin", "byteLength": 1908}, {"uri": "player_body_buf36.bin", "byteLength": 2148}, {"uri": "player_body_buf37.bin", "byteLength": 1908}, {"uri": "player_body_buf38.bin", "byteLength": 2148}, {"uri": "player_body_buf39.bin", "byteLength": 1908}, {"uri": "player_body_buf40.bin", "byteLength": 2148}, {"uri": "player_body_buf41.bin", "byteLength": 1908}, {"uri": "player_body_buf42.bin", "byteLength": 2148}, {"uri": "player_body_buf43.bin", "byteLength": 1908}, {"uri": "player_body_buf44.bin", "byteLength": 2148}, {"uri": "player_body_buf45.bin", "byteLength": 1908}, {"uri": "player_body_buf46.bin", "byteLength": 2148}, {"uri": "player_body_buf47.bin", "byteLength": 1908}, {"uri": "player_body_buf48.bin", "byteLength": 2148}, {"uri": "player_body_buf49.bin", "byteLength": 1908}, {"uri": "player_body_buf50.bin", "byteLength": 2148}, {"uri": "player_body_buf51.bin", "byteLength": 1908}, {"uri": "player_body_buf52.bin", "byteLength": 2148}, {"uri": "player_body_buf53.bin", "byteLength": 1908}, {"uri": "player_body_buf54.bin", "byteLength": 2148}, {"uri": "player_body_buf55.bin", "byteLength": 1908}, {"uri": "player_body_buf56.bin", "byteLength": 2148}, {"uri": "player_body_buf57.bin", "byteLength": 1908}, {"uri": "player_body_buf58.bin", "byteLength": 2148}, {"uri": "player_body_buf59.bin", "byteLength": 1908}, {"uri": "player_body_buf60.bin", "byteLength": 1392}, {"uri": "player_body_buf61.bin", "byteLength": 1160}, {"uri": "player_body_buf62.bin", "byteLength": 928}, {"uri": "player_body_buf63.bin", "byteLength": 1432}, {"uri": "player_body_buf64.bin", "byteLength": 1272}], "bufferViews": [{"buffer": 0, "byteOffset": 0, "byteLength": 966, "target": 34963}, {"buffer": 1, "byteOffset": 0, "byteLength": 2148}, {"buffer": 2, "byteOffset": 0, "byteLength": 918, "target": 34963}, {"buffer": 3, "byteOffset": 0, "byteLength": 1908}, {"buffer": 4, "byteOffset": 0, "byteLength": 2148, "target": 34962}, {"buffer": 5, "byteOffset": 0, "byteLength": 1908, "target": 34962}, {"buffer": 6, "byteOffset": 0, "byteLength": 2148, "target": 34962}, {"buffer": 7, "byteOffset": 0, "byteLength": 1908, "target": 34962}, {"buffer": 8, "byteOffset": 0, "byteLength": 2148, "target": 34962}, {"buffer": 9, "byteOffset": 0, "byteLength": 1908, "target": 34962}, {"buffer": 10, "byteOffset": 0, "byteLength": 2148, "target": 34962}, {"buffer": 11, "byteOffset": 0, "byteLength": 1908, "target": 34962}, {"buffer": 12, "byteOffset": 0, "byteLength": 2148, "target": 34962}, {"buffer": 13, "byteOffset": 0, "byteLength": 1908, "target": 34962}, {"buffer": 14, "byteOffset": 0, "byteLength": 2148, "target": 34962}, {"buffer": 15, "byteOffset": 0, "byteLength": 1908, "target": 34962}, {"buffer": 16, "byteOffset": 0, "byteLength": 2148, "target": 34962}, {"buffer": 17, "byteOffset": 0, "byteLength": 1908, "target": 34962}, {"buffer": 18, "byteOffset": 0, "byteLength": 2148, "target": 34962}, {"buffer": 19, "byteOffset": 0, "byteLength": 1908, "target": 34962}, {"buffer": 20, "byteOffset": 0, "byteLength": 2148, "target": 34962}, {"buffer": 21, "byteOffset": 0, "byteLength": 1908, "target": 34962}, {"buffer": 22, "byteOffset": 0, "byteLength": 2148, "target": 34962}, {"buffer": 23, "byteOffset": 0, "byteLength": 1908, "target": 34962}, {"buffer": 24, "byteOffset": 0, "byteLength": 2148, "target": 34962}, {"buffer": 25, "byteOffset": 0, "byteLength": 1908, "target": 34962}, {"buffer": 26, "byteOffset": 0, "byteLength": 2148, "target": 34962}, {"buffer": 27, "byteOffset": 0, "byteLength": 1908, "target": 34962}, {"buffer": 28, "byteOffset": 0, "byteLength": 2148, "target": 34962}, {"buffer": 29, "byteOffset": 0, "byteLength": 1908, "target": 34962}, {"buffer": 30, "byteOffset": 0, "byteLength": 2148, "target": 34962}, {"buffer": 31, "byteOffset": 0, "byteLength": 1908, "target": 34962}, {"buffer": 32, "byteOffset": 0, "byteLength": 2148, "target": 34962}, {"buffer": 33, "byteOffset": 0, "byteLength": 1908, "target": 34962}, {"buffer": 34, "byteOffset": 0, "byteLength": 2148, "target": 34962}, {"buffer": 35, "byteOffset": 0, "byteLength": 1908, "target": 34962}, {"buffer": 36, "byteOffset": 0, "byteLength": 2148, "target": 34962}, {"buffer": 37, "byteOffset": 0, "byteLength": 1908, "target": 34962}, {"buffer": 38, "byteOffset": 0, "byteLength": 2148, "target": 34962}, {"buffer": 39, "byteOffset": 0, "byteLength": 1908, "target": 34962}, {"buffer": 40, "byteOffset": 0, "byteLength": 2148, "target": 34962}, {"buffer": 41, "byteOffset": 0, "byteLength": 1908, "target": 34962}, {"buffer": 42, "byteOffset": 0, "byteLength": 2148, "target": 34962}, {"buffer": 43, "byteOffset": 0, "byteLength": 1908, "target": 34962}, {"buffer": 44, "byteOffset": 0, "byteLength": 2148, "target": 34962}, {"buffer": 45, "byteOffset": 0, "byteLength": 1908, "target": 34962}, {"buffer": 46, "byteOffset": 0, "byteLength": 2148, "target": 34962}, {"buffer": 47, "byteOffset": 0, "byteLength": 1908, "target": 34962}, {"buffer": 48, "byteOffset": 0, "byteLength": 2148, "target": 34962}, {"buffer": 49, "byteOffset": 0, "byteLength": 1908, "target": 34962}, {"buffer": 50, "byteOffset": 0, "byteLength": 2148, "target": 34962}, {"buffer": 51, "byteOffset": 0, "byteLength": 1908, "target": 34962}, {"buffer": 52, "byteOffset": 0, "byteLength": 2148, "target": 34962}, {"buffer": 53, "byteOffset": 0, "byteLength": 1908, "target": 34962}, {"buffer": 54, "byteOffset": 0, "byteLength": 2148, "target": 34962}, {"buffer": 55, "byteOffset": 0, "byteLength": 1908, "target": 34962}, {"buffer": 56, "byteOffset": 0, "byteLength": 2148, "target": 34962}, {"buffer": 57, "byteOffset": 0, "byteLength": 1908, "target": 34962}, {"buffer": 58, "byteOffset": 0, "byteLength": 2148, "target": 34962}, {"buffer": 59, "byteOffset": 0, "byteLength": 1908, "target": 34962}, {"buffer": 60, "byteOffset": 0, "byteLength": 48}, {"buffer": 60, "byteOffset": 48, "byteLength": 1344}, {"buffer": 61, "byteOffset": 0, "byteLength": 40}, {"buffer": 61, "byteOffset": 40, "byteLength": 1120}, {"buffer": 62, "byteOffset": 0, "byteLength": 32}, {"buffer": 62, "byteOffset": 32, "byteLength": 896}, {"buffer": 63, "byteOffset": 0, "target": 34962, "byteLength": 1432}, {"buffer": 64, "byteOffset": 0, "target": 34962, "byteLength": 1272}], "accessors": [{"bufferView": 0, "byteOffset": 0, "componentType": 5123, "count": 483, "type": "SCALAR", "max": [178], "min": [0]}, {"bufferView": 1, "byteOffset": 0, "componentType": 5126, "count": 179, "type": "VEC3", "max": [33, 165, 15], "min": [-33, 114, -10]}, {"bufferView": 2, "byteOffset": 0, "componentType": 5123, "count": 459, "type": "SCALAR", "max": [158], "min": [0]}, {"bufferView": 3, "byteOffset": 0, "componentType": 5126, "count": 159, "type": "VEC3", "max": [40, 171, 17], "min": [-40, 115, -13]}, {"bufferView": 4, "byteOffset": 0, "componentType": 5126, "count": 179, "type": "VEC3", "max": [0, 4.75, 4.333333333333333], "min": [0, -4, -8.666666666666668]}, {"bufferView": 5, "byteOffset": 0, "componentType": 5126, "count": 159, "type": "VEC3", "max": [0, 2, 1.3333333333333335], "min": [0, -5, -3.666666666666667]}, {"bufferView": 6, "byteOffset": 0, "componentType": 5126, "count": 179, "type": "VEC3", "max": [0, 3.75, 4.333333333333333], "min": [0, -5, -8.666666666666668]}, {"bufferView": 7, "byteOffset": 0, "componentType": 5126, "count": 159, "type": "VEC3", "max": [0, 1, 1.3333333333333335], "min": [0, -6, -3.666666666666667]}, {"bufferView": 8, "byteOffset": 0, "componentType": 5126, "count": 179, "type": "VEC3", "max": [0, 4.75, 4.333333333333333], "min": [-1, -4, -8.666666666666668]}, {"bufferView": 9, "byteOffset": 0, "componentType": 5126, "count": 159, "type": "VEC3", "max": [0, 2, 2.333333333333333], "min": [-1, -5, -3.666666666666667]}, {"bufferView": 10, "byteOffset": 0, "componentType": 5126, "count": 179, "type": "VEC3", "max": [0, 3, 5], "min": [-1, -5, -10.333333333333334]}, {"bufferView": 11, "byteOffset": 0, "componentType": 5126, "count": 159, "type": "VEC3", "max": [0, 2, 3], "min": [-1, -6, -5.333333333333333]}, {"bufferView": 12, "byteOffset": 0, "componentType": 5126, "count": 179, "type": "VEC3", "max": [0, 4.75, 4.333333333333333], "min": [-1, -4, -8.666666666666668]}, {"bufferView": 13, "byteOffset": 0, "componentType": 5126, "count": 159, "type": "VEC3", "max": [0, 2, 2.333333333333333], "min": [-1, -5, -3.666666666666667]}, {"bufferView": 14, "byteOffset": 0, "componentType": 5126, "count": 179, "type": "VEC3", "max": [0, 3.75, 4.333333333333333], "min": [0, -5, -8.666666666666668]}, {"bufferView": 15, "byteOffset": 0, "componentType": 5126, "count": 159, "type": "VEC3", "max": [0, 1, 1.3333333333333335], "min": [0, -6, -3.666666666666667]}, {"bufferView": 16, "byteOffset": 0, "componentType": 5126, "count": 179, "type": "VEC3", "max": [0, 4.75, 4.333333333333333], "min": [0, -4, -8.666666666666668]}, {"bufferView": 17, "byteOffset": 0, "componentType": 5126, "count": 159, "type": "VEC3", "max": [0, 2, 1.3333333333333335], "min": [0, -5, -3.666666666666667]}, {"bufferView": 18, "byteOffset": 0, "componentType": 5126, "count": 179, "type": "VEC3", "max": [0, 3.75, 4.333333333333333], "min": [0, -5, -8.666666666666668]}, {"bufferView": 19, "byteOffset": 0, "componentType": 5126, "count": 159, "type": "VEC3", "max": [0, 1, 1.3333333333333335], "min": [0, -6, -3.666666666666667]}, {"bufferView": 20, "byteOffset": 0, "componentType": 5126, "count": 179, "type": "VEC3", "max": [0, 3.75, 4.333333333333333], "min": [0, -5, -8.666666666666668]}, {"bufferView": 21, "byteOffset": 0, "componentType": 5126, "count": 159, "type": "VEC3", "max": [0, 1, 1.3333333333333335], "min": [0, -6, -3.666666666666667]}, {"bufferView": 22, "byteOffset": 0, "componentType": 5126, "count": 179, "type": "VEC3", "max": [0, 3.25, 4.333333333333334], "min": [0, -5, -6.666666666666667]}, {"bufferView": 23, "byteOffset": 0, "componentType": 5126, "count": 159, "type": "VEC3", "max": [0, 1, 1.3333333333333335], "min": [0, -6, -3.6666666666666665]}, {"bufferView": 24, "byteOffset": 0, "componentType": 5126, "count": 179, "type": "VEC3", "max": [0, 4.5, 3.3333333333333335], "min": [0, -4, -7.666666666666667]}, {"bufferView": 25, "byteOffset": 0, "componentType": 5126, "count": 159, "type": "VEC3", "max": [0, 2, 1.3333333333333335], "min": [0, -5, -3.6666666666666665]}, {"bufferView": 26, "byteOffset": 0, "componentType": 5126, "count": 179, "type": "VEC3", "max": [0, 2.75, 4.333333333333333], "min": [0, -5, -8.666666666666668]}, {"bufferView": 27, "byteOffset": 0, "componentType": 5126, "count": 159, "type": "VEC3", "max": [0, 1, 1.3333333333333335], "min": [0, -6, -3.666666666666667]}, {"bufferView": 28, "byteOffset": 0, "componentType": 5126, "count": 179, "type": "VEC3", "max": [0, 4.75, 4.333333333333333], "min": [0, -4, -8.666666666666668]}, {"bufferView": 29, "byteOffset": 0, "componentType": 5126, "count": 159, "type": "VEC3", "max": [0, 2, 1.3333333333333335], "min": [0, -5, -3.666666666666667]}, {"bufferView": 30, "byteOffset": 0, "componentType": 5126, "count": 179, "type": "VEC3", "max": [3, 6.055555555555543, 17.38888888888889], "min": [-3.5, -5.444444444444457, -8.722222222222221]}, {"bufferView": 31, "byteOffset": 0, "componentType": 5126, "count": 159, "type": "VEC3", "max": [3, 4.555555555555543, 16.38888888888889], "min": [-2, -5.444444444444457, -2.7222222222222223]}, {"bufferView": 32, "byteOffset": 0, "componentType": 5126, "count": 179, "type": "VEC3", "max": [9, 12.361111111111114, 27.72222222222222], "min": [-5, -8.888888888888886, -12.833333333333332]}, {"bufferView": 33, "byteOffset": 0, "componentType": 5126, "count": 159, "type": "VEC3", "max": [10, 8.111111111111114, 31.72222222222222], "min": [-1, -8.888888888888886, -2.833333333333333]}, {"bufferView": 34, "byteOffset": 0, "componentType": 5126, "count": 179, "type": "VEC3", "max": [6, 14.611111111111114, 26.61111111111111], "min": [-2.583333333333332, -4.888888888888886, -0.9444444444444446]}, {"bufferView": 35, "byteOffset": 0, "componentType": 5126, "count": 159, "type": "VEC3", "max": [7, 5.111111111111114, 27.61111111111111], "min": [-2.333333333333332, -5.888888888888886, 3.0555555555555554]}, {"bufferView": 36, "byteOffset": 0, "componentType": 5126, "count": 179, "type": "VEC3", "max": [5, 19.77777777777777, 33.5], "min": [-3.7222222222222214, -5.2222222222222285, 12]}, {"bufferView": 37, "byteOffset": 0, "componentType": 5126, "count": 159, "type": "VEC3", "max": [5, 3.7777777777777715, 29.5], "min": [-1.2222222222222214, -5.2222222222222285, 13]}, {"bufferView": 38, "byteOffset": 0, "componentType": 5126, "count": 179, "type": "VEC3", "max": [2.444444444444443, 32.77777777777777, 46.111111111111114], "min": [-14.055555555555557, -5.2222222222222285, 10.277777777777779]}, {"bufferView": 39, "byteOffset": 0, "componentType": 5126, "count": 159, "type": "VEC3", "max": [2, 4.7777777777777715, 25.27777777777778], "min": [-2.555555555555557, -7.2222222222222285, 14]}, {"bufferView": 40, "byteOffset": 0, "componentType": 5126, "count": 179, "type": "VEC3", "max": [3.944444444444443, 35.77777777777777, 51.05555555555556], "min": [-18.055555555555557, -6.7222222222222285, 11.555555555555557]}, {"bufferView": 41, "byteOffset": 0, "componentType": 5126, "count": 159, "type": "VEC3", "max": [0.9444444444444429, 6.2777777777777715, 29.555555555555557], "min": [-6.055555555555557, -10.722222222222229, 17]}, {"bufferView": 42, "byteOffset": 0, "componentType": 5126, "count": 179, "type": "VEC3", "max": [1.9444444444444429, 20.5, 38.166666666666664], "min": [-9.055555555555557, -4.5, 1.166666666666666]}, {"bufferView": 43, "byteOffset": 0, "componentType": 5126, "count": 159, "type": "VEC3", "max": [0, 3.5, 15.166666666666666], "min": [-3.055555555555557, -5.5, 7.166666666666666]}, {"bufferView": 44, "byteOffset": 0, "componentType": 5126, "count": 179, "type": "VEC3", "max": [-6, 18.111111111111114, 79.5], "min": [-13, -10.388888888888886, 19.055555555555557]}, {"bufferView": 45, "byteOffset": 0, "componentType": 5126, "count": 159, "type": "VEC3", "max": [-6, 10.611111111111114, 61], "min": [-13, -8.388888888888886, 33.55555555555556]}, {"bufferView": 46, "byteOffset": 0, "componentType": 5126, "count": 179, "type": "VEC3", "max": [-2, 8.722222222222229, 52.166666666666664], "min": [-5, -8.277777777777771, 15.666666666666668]}, {"bufferView": 47, "byteOffset": 0, "componentType": 5126, "count": 159, "type": "VEC3", "max": [-2, 3.7222222222222285, 40], "min": [-5, -10.277777777777771, 24.666666666666668]}, {"bufferView": 48, "byteOffset": 0, "componentType": 5126, "count": 179, "type": "VEC3", "max": [0, 8.888888888888886, 31.194444444444443], "min": [-1, -4.611111111111114, 8.444444444444443]}, {"bufferView": 49, "byteOffset": 0, "componentType": 5126, "count": 159, "type": "VEC3", "max": [0, 3.3888888888888857, 21.444444444444443], "min": [0, -5.611111111111114, 14]}, {"bufferView": 50, "byteOffset": 0, "componentType": 5126, "count": 179, "type": "VEC3", "max": [4, 11.611111111111114, 55.083333333333336], "min": [0, -8.388888888888886, 15.333333333333336]}, {"bufferView": 51, "byteOffset": 0, "componentType": 5126, "count": 159, "type": "VEC3", "max": [4, 5.611111111111114, 42], "min": [1, -8.388888888888886, 24.333333333333336]}, {"bufferView": 52, "byteOffset": 0, "componentType": 5126, "count": 179, "type": "VEC3", "max": [12, 18.111111111111114, 80.5], "min": [5, -10.388888888888886, 19.055555555555557]}, {"bufferView": 53, "byteOffset": 0, "componentType": 5126, "count": 159, "type": "VEC3", "max": [12, 10.611111111111114, 61], "min": [5, -8.388888888888886, 33.55555555555556]}, {"bufferView": 54, "byteOffset": 0, "componentType": 5126, "count": 179, "type": "VEC3", "max": [4, 8.777777777777771, 52.80555555555556], "min": [-0.25, -9.222222222222229, 15.555555555555557]}, {"bufferView": 55, "byteOffset": 0, "componentType": 5126, "count": 159, "type": "VEC3", "max": [4, 3.7777777777777715, 40], "min": [1, -10.222222222222229, 23.555555555555557]}, {"bufferView": 56, "byteOffset": 0, "componentType": 5126, "count": 179, "type": "VEC3", "max": [0, 6.888888888888886, 23.72222222222222], "min": [-1, -4.611111111111114, 8.722222222222221]}, {"bufferView": 57, "byteOffset": 0, "componentType": 5126, "count": 159, "type": "VEC3", "max": [0, 4.388888888888886, 22], "min": [0, -5.611111111111114, 14.722222222222221]}, {"bufferView": 58, "byteOffset": 0, "componentType": 5126, "count": 179, "type": "VEC3", "max": [-2, 11.611111111111114, 54.083333333333336], "min": [-5.25, -8.388888888888886, 15.333333333333336]}, {"bufferView": 59, "byteOffset": 0, "componentType": 5126, "count": 159, "type": "VEC3", "max": [-2, 5.611111111111114, 42], "min": [-5, -8.388888888888886, 24.333333333333336]}, {"bufferView": 60, "byteOffset": 0, "componentType": 5126, "count": 12, "type": "SCALAR", "max": [5.04], "min": [0.42]}, {"bufferView": 61, "byteOffset": 0, "componentType": 5126, "count": 336, "type": "SCALAR", "max": [1], "min": [0]}, {"bufferView": 62, "byteOffset": 0, "componentType": 5126, "count": 10, "type": "SCALAR", "max": [1.46], "min": [0.08]}, {"bufferView": 63, "byteOffset": 0, "componentType": 5126, "count": 280, "type": "SCALAR", "max": [1], "min": [0]}, {"bufferView": 64, "byteOffset": 0, "componentType": 5126, "count": 8, "type": "SCALAR", "max": [0.68], "min": [0.1]}, {"bufferView": 65, "byteOffset": 0, "componentType": 5126, "count": 224, "type": "SCALAR", "max": [1], "min": [0]}, {"bufferView": 66, "byteOffset": 0, "componentType": 5126, "count": 179, "type": "VEC2", "max": [0.9166666666666667, 0.66], "min": [0.08333333333333333, 0.33]}, {"bufferView": 67, "byteOffset": 0, "componentType": 5126, "count": 159, "type": "VEC2", "max": [0.41666666666666663, 0.66], "min": [0.25, 0.33]}], "asset": {"version": "2.0"}}