{"scene":0,"scenes":[{"nodes":[0]}],"nodes":[{"mesh":0}],"meshes":[{"primitives":[{"attributes":{"POSITION":1,"TEXCOORD_0":4},"indices":0,"material":0},{"attributes":{"POSITION":3,"TEXCOORD_0":5},"indices":2,"material":1}]}],"textures":[{"source":0,"sampler":0}],"images":[{"uri":"data:image/png;base64,"}],"samplers":[{"magFilter":9728,"minFilter":9987,"wrapS":33648,"wrapT":33648},{"magFilter":9728,"minFilter":9987,"wrapS":33648,"wrapT":33648}],"materials":[{"pbrMetallicRoughness":{"baseColorTexture":{"index":0},"metallicFactor":0,"roughnessFactor":1}},{"alphaMode":"BLEND","pbrMetallicRoughness":{"baseColorTexture":{"index":0},"metallicFactor":0,"roughnessFactor":1}}],"buffers":[{"uri":"data:application/octet-stream;base64,","byteLength":720},{"uri":"data:application/octet-stream;base64,","byteLength":744},{"uri":"data:application/octet-stream;base64,","byteLength":1680},{"uri":"data:application/octet-stream;base64,","byteLength":1824},{"uri":"data:application/gltf-buffer;base64,","byteLength":496},{"uri":"data:application/gltf-buffer;base64,","byteLength":1216}],"bufferViews":[{"buffer":0,"byteOffset":0,"byteLength":720,"target":34963},{"buffer":1,"byteOffset":0,"byteLength":744},{"buffer":2,"byteOffset":0,"byteLength":1680,"target":34963},{"buffer":3,"byteOffset":0,"byteLength":1824},{"buffer":4,"byteOffset":0,"target":34962,"byteLength":496},{"buffer":5,"byteOffset":0,"target":34962,"byteLength":1216}],"accessors":[{"bufferView":0,"byteOffset":0,"componentType":5123,"count":360,"type":"SCALAR","max":[61],"min":[0]},{"bufferView":1,"byteOffset":0,"componentType":5126,"count":62,"type":"VEC3","max":[48,50,32],"min":[-48,-46,-64]},{"bufferView":2,"byteOffset":0,"componentType":5123,"count":840,"type":"SCALAR","max":[151],"min":[0]},{"bufferView":3,"byteOffset":0,"componentType":5126,"count":152,"type":"VEC3","max":[92,96,68],"min":[-96,-82,-106]},{"bufferView":4,"byteOffset":0,"componentType":5126,"count":62,"type":"VEC2","max":[0.375,0.66],"min":[0.375,0.33]},{"bufferView":5,"byteOffset":0,"componentType":5126,"count":152,"type":"VEC2","max":[0.875,0.66],"min":[0.125,0.33]}],"asset":{"version":"2.0"}}