{"scene":0,"scenes":[{"nodes":[0]}],"nodes":[{"mesh":0}],"meshes":[{"primitives":[{"attributes":{"POSITION":1,"TEXCOORD_0":4},"indices":0,"material":0},{"attributes":{"POSITION":3,"TEXCOORD_0":5},"indices":2,"material":1}]}],"textures":[{"source":0,"sampler":0}],"images":[{"uri":"tornado_tex0.png"}],"samplers":[{"magFilter":9728,"minFilter":9987,"wrapS":33648,"wrapT":33648},{"magFilter":9728,"minFilter":9987,"wrapS":33648,"wrapT":33648}],"materials":[{"pbrMetallicRoughness":{"baseColorTexture":{"index":0},"metallicFactor":0,"roughnessFactor":1}},{"alphaMode":"BLEND","pbrMetallicRoughness":{"baseColorTexture":{"index":0},"metallicFactor":0,"roughnessFactor":1}}],"buffers":[{"uri":"tornado_buf0.bin","byteLength":648},{"uri":"tornado_buf1.bin","byteLength":792},{"uri":"tornado_buf2.bin","byteLength":1380},{"uri":"tornado_buf3.bin","byteLength":3360},{"uri":"tornado_buf4.bin","byteLength":528},{"uri":"tornado_buf5.bin","byteLength":2240}],"bufferViews":[{"buffer":0,"byteOffset":0,"byteLength":648,"target":34963},{"buffer":1,"byteOffset":0,"byteLength":792},{"buffer":2,"byteOffset":0,"byteLength":1380,"target":34963},{"buffer":3,"byteOffset":0,"byteLength":3360},{"buffer":4,"byteOffset":0,"target":34962,"byteLength":528},{"buffer":5,"byteOffset":0,"target":34962,"byteLength":2240}],"accessors":[{"bufferView":0,"byteOffset":0,"componentType":5123,"count":324,"type":"SCALAR","max":[65],"min":[0]},{"bufferView":1,"byteOffset":0,"componentType":5126,"count":66,"type":"VEC3","max":[337,230,286],"min":[-337,0,-127]},{"bufferView":2,"byteOffset":0,"componentType":5123,"count":690,"type":"SCALAR","max":[279],"min":[0]},{"bufferView":3,"byteOffset":0,"componentType":5126,"count":280,"type":"VEC3","max":[323,218,274],"min":[-323,-1,-144]},{"bufferView":4,"byteOffset":0,"componentType":5126,"count":66,"type":"VEC2","max":[0.35,0.66],"min":[0.35,0.33]},{"bufferView":5,"byteOffset":0,"componentType":5126,"count":280,"type":"VEC2","max":[0.9500000000000001,0.66],"min":[0.05,0.33]}],"asset":{"version":"2.0"}}